<svg xmlns="http://www.w3.org/2000/svg" version="1.1" width="1920" height="520"><rect id="backgroundrect" width="100%" height="100%" x="0" y="0" fill="none" stroke="none"/>




<g class="currentLayer" style=""><title>Layer 1</title><path d="M1516.578369140625,259.63165283203125 C1520.354209230625,259.62515853203126 1524.130005960625,259.61372181203126 1527.905830380625,259.60121155203126 C1635.154403900625,259.29307225203127 1741.552330540625,270.89156864203125 1883.500007630625,298.06251526203124 C1884.358286590625,298.23175506203125 1885.216565550625,298.4009948720312 1886.100852970625,298.57536316203124 C1891.045003430625,299.55068396203126 1895.988284070625,300.53023235203125 1900.930297850625,301.51632499203123 C1902.4463507006249,301.81864424203127 1903.962569140625,302.12013436203125 1905.478958130625,302.4207630120313 C1907.558840460625,302.83364974203124 1909.637924610625,303.2503275820312 1911.7168045006251,303.66822815203125 C1912.887555240625,303.90231888203124 1914.058305970625,304.1364096020312 1915.264534000625,304.3775939920313 C1918.000007630625,305.00001526203124 1918.000007630625,305.00001526203124 1920.000007630625,306.00001526203124 C1920.000007630625,376.62001526203125 1920.000007630625,447.24001526203125 1920.000007630625,520.0000152620312 C1286.400007630625,520.0000152620312 652.800007630625,520.0000152620312 0.000007630625077581499,520.0000152620312 C0.000007630625077581499,449.38001526203124 0.000007630625077581499,378.76001526203123 0.000007630625077581499,306.00001526203124 C12.367489410625012,308.24864831203126 12.367489410625012,308.24864831203126 17.773445130625078,309.61305237203123 C18.991352390625025,309.91814728203127 20.209259640625078,310.22324219203125 21.464073180625064,310.53758240203126 C22.09938776062495,310.69841183203124 22.734702340625063,310.85924125203127 23.389268870625074,311.02494430203126 C26.161627130624993,311.72638277203123 28.936192470624974,312.41891304203125 31.710576060625044,313.1122894320313 C33.94180798062507,313.67009668203127 36.172737510624984,314.22910285203125 38.40366363062503,314.78813171203126 C69.14400657062492,322.48261071203126 99.9415059406249,329.68994448203125 131.00000763062508,336.00001526203124 C131.8988870206249,336.18374695203124 132.79776642062507,336.36747864203124 133.72388458062505,336.55677795203127 C185.256148300625,347.0802433320313 237.31070213062503,354.42079578203123 289.7070388806251,358.96485901203124 C290.4239741506251,359.0275849920313 291.1409094206249,359.09031097203126 291.879570010625,359.1549377420313 C330.731644710625,362.40224730203124 369.692445600625,363.3640847020313 408.6637496906251,363.25796509203127 C411.81526435062506,363.24984716203124 414.96677175062496,363.24492483203124 418.11829376062497,363.2406158420313 C447.46124349062507,363.1944831320312 476.75308652062495,362.99801681203127 506.048835750625,361.18037414203127 C509.214403320625,360.98691261203123 512.380512880625,360.80534272203124 515.546882630625,360.62550354203125 C611.513179170625,355.12896482203126 707.137954310625,344.02923325203125 979.947990420625,309.00439453203126 C1173.783242980625,283.4333800520312 1173.783242980625,283.4333800520312 1392.507209780625,263.22004700203127 C1395.953684980625,263.00293339203125 1399.399198550625,262.7739986120313 1402.844734190625,262.5424957320312 C1440.739767560625,260.0364301920313 1478.611088580625,259.6845887420312 1516.578369140625,259.63165283203125 z" fill="#4141e8" id="svg_1" class="selected" fill-opacity="1"/><path d="M1516.578369140625,259.63165283203125 C1520.354209230625,259.62515853203126 1524.130005960625,259.61372181203126 1527.905830380625,259.60121155203126 C1635.154403900625,259.29307225203127 1741.552330540625,270.89156864203125 1883.500007630625,298.06251526203124 C1884.358286590625,298.23175506203125 1885.216565550625,298.4009948720312 1886.100852970625,298.57536316203124 C1891.045003430625,299.55068396203126 1895.988284070625,300.53023235203125 1900.930297850625,301.51632499203123 C1902.4463507006249,301.81864424203127 1903.962569140625,302.12013436203125 1905.478958130625,302.4207630120313 C1907.558840460625,302.83364974203124 1909.637924610625,303.2503275820312 1911.7168045006251,303.66822815203125 C1912.887555240625,303.90231888203124 1914.058305970625,304.1364096020312 1915.264534000625,304.3775939920313 C1918.000007630625,305.00001526203124 1918.000007630625,305.00001526203124 1920.000007630625,306.00001526203124 C1920.000007630625,335.04001526203126 1920.000007630625,364.0800152620312 1920.000007630625,394.00001526203124 C1909.877203260625,392.8752592220312 1909.877203260625,392.8752592220312 1904.985115050625,391.9118804920313 C1903.884809570625,391.6972264120312 1902.784504090625,391.4825723220313 1901.650856020625,391.26141357203124 C1900.480880740625,391.02948807203126 1899.310905460625,390.79756256203126 1898.105476380625,390.55860901203124 C1896.199484820625,390.18580566203127 1894.293492120625,389.81300807203127 1892.387451170625,389.4404573420312 C1890.372212910625,389.0460174620313 1888.357298110625,388.64995947203124 1886.342445370625,388.25355530203126 C1879.300977630625,386.8691527120312 1872.255847190625,385.50353135203125 1865.210945130625,384.13673401203124 C1864.507918260625,384.00027088203126 1863.804891390625,383.8638077520312 1863.080560680625,383.72320938203126 C1827.703953360625,376.8581634920313 1792.251351720625,370.79987253203126 1756.621162410625,365.39845276203124 C1754.294319500625,365.04475313203125 1751.968057340625,364.68759246203126 1749.642097470625,364.32814026203124 C1731.651481430625,361.5585538120313 1713.605405820625,359.5612586120312 1695.497215270625,357.75460815203127 C1690.567772650625,357.26235737203126 1685.640727160625,356.75211349203124 1680.714958190625,356.2243957520312 C1660.502040050625,354.06536734203127 1640.295950340625,352.46653934203124 1620.000007630625,351.31251526203124 C1618.932240910625,351.2517581220312 1617.864474180625,351.19100097203125 1616.7643508906249,351.12840271203123 C1610.507463260625,350.77717381203126 1604.249695210625,350.45206772203125 1597.990333560625,350.14817810203124 C1595.185436600625,350.00920278203125 1592.381535140625,349.8568245220313 1589.577400210625,349.70338440203125 C1566.971901610625,348.55262724203124 1544.315001460625,348.8031594820312 1521.687507630625,348.81251526203124 C1519.434923810625,348.81245917203125 1517.182339990625,348.81239811203125 1514.929756160625,348.8123321520312 C1475.933491470625,348.8208362720312 1436.976717430625,349.10110649203125 1398.101570130625,352.51564026203124 C1392.978709200625,352.9511256320312 1387.8577642606251,353.2152478720312 1382.722221370625,353.45048523203127 C1336.047085400625,355.60944665203124 1289.4933042606249,361.1620907120313 1243.056404110625,366.19581604203125 C1242.306303180625,366.2770955820313 1241.556202240625,366.35837513203126 1240.7833709706251,366.4421176920313 C1239.6681367906249,366.56297013203124 1239.6681367906249,366.56297013203124 1238.530372620625,366.68626404203127 C1237.793767810625,366.76608394203123 1237.0571630106251,366.84590385203126 1236.298236850625,366.92814255203126 C1234.829870430625,367.08733274203126 1233.361519550625,367.24666627203123 1231.8931846606251,367.4061470020313 C1224.139971970625,368.2475608020312 1216.385666200625,369.07127650203125 1208.624763490625,369.83888244203126 C1207.948898200625,369.90577428203125 1207.273032910625,369.9726661120312 1206.576686860625,370.0415849720313 C1203.422277210625,370.35283825203123 1200.267546950625,370.66024316203124 1197.112281800625,370.9627075220312 C1188.985392080625,371.75439354203127 1180.901182440625,372.7604271220313 1172.812507630625,373.87501526203124 C1171.697617110625,374.02761055203126 1171.697617110625,374.02761055203126 1170.560203550625,374.18328857203124 C1168.829098350625,374.4209319120313 1167.098141890625,374.65965809203124 1165.367195130625,374.89845276203124 C1155.408860620625,376.2506330620313 1145.4220680006251,377.36174888203124 1135.437507630625,378.50001526203124 C1121.731349280625,380.06414739203126 1108.060080280625,381.75131760203124 1094.401374820625,383.68922424203123 C1087.481141150625,384.6688351920312 1080.5639071006249,385.54639998203123 1073.613777160625,386.28199768203126 C1063.391048200625,387.36731193203127 1053.196776160625,388.69639396203127 1043.000007630625,390.00001526203124 C1041.843476870625,390.1472100820313 1041.843476870625,390.1472100820313 1040.663581850625,390.29737854203125 C1034.612656540625,391.07076287203125 1028.588755900625,391.8953834220313 1022.5781326306251,392.93751526203124 C1015.791095680625,394.0793926320313 1008.972622530625,394.8941985220313 1002.138191220625,395.6884918220312 C992.405327940625,396.82202922203123 982.679289760625,397.96562423203125 973.000007630625,399.50001526203124 C963.470859370625,401.00838239203125 953.898364750625,402.12389538203126 944.319313050625,403.25825500203126 C935.083855170625,404.35399832203126 925.879733530625,405.55850812203124 916.690437320625,406.99610901203124 C910.833822080625,407.90287547203127 904.972329060625,408.6038721520313 899.079841610625,409.23097229203125 C892.586802290625,409.92388565203123 886.105419700625,410.69773583203124 879.625007630625,411.50001526203124 C878.650798640625,411.61860901203124 877.676589660625,411.73720276203125 876.672859190625,411.85939026203124 C871.755928690625,412.47213337203124 866.871911300625,413.17231820203125 861.988288880625,414.01173401203124 C856.197061950625,414.99876865203123 850.402138430625,415.68559289203125 844.562507630625,416.31251526203124 C833.556503000625,417.5337806420313 822.593563970625,418.9849282420313 811.625007630625,420.50001526203124 C799.281085980625,422.20346668203126 786.944988410625,423.7143271720313 774.546882630625,424.97657776203124 C767.876974470625,425.66387508203127 761.253968760625,426.49421506203123 754.625007630625,427.50001526203124 C744.855707800625,428.9785808120313 735.053220810625,429.93076448203124 725.219734190625,430.87501526203124 C717.583005850625,431.61685783203126 709.977652370625,432.46680944203126 702.375007630625,433.50001526203124 C684.304743750625,435.9447120720313 666.177067550625,437.8033900720312 647.999275210625,439.23072815203125 C640.562148800625,439.82955532203124 633.160726080625,440.63743433203126 625.750007630625,441.50001526203124 C615.201788400625,442.7210041120312 604.660240660625,443.5914726920313 594.066169740625,444.30079651203124 C587.135805400625,444.7669971820312 580.224560810625,445.31438525203123 573.312507630625,446.00001526203124 C551.871589750625,448.09106576203123 530.486102940625,449.42325226203127 508.962898250625,450.30274963203124 C508.01645950062505,450.34194015203127 507.07002075062496,450.38113067203125 506.094902040625,450.42150879203126 C504.33286947062504,450.4939978720313 502.570759150625,450.56463687203126 500.808555600625,450.63284302203124 C495.92045296062497,450.83306611203125 491.04858346062497,451.13224670203124 486.16968536062495,451.49488830203126 C461.752963170625,453.28147773203125 437.21959454062494,453.23817047203124 412.7500076306251,453.25001526203124 C411.9081126006249,453.2508989720312 411.066217570625,453.25178268203126 410.1988105806249,453.2526931720313 C380.2479558806251,453.28043156203125 350.4862619606249,452.36599371203124 320.5947341906251,450.36720276203124 C315.83302439062504,450.04942107203124 311.07062009062497,449.7764938720312 306.3046951306251,449.53126526203124 C273.02515155062497,447.7540668020313 239.89930709062492,443.7522424620313 206.93750763062508,438.93751526203124 C205.80248810062494,438.77193115203124 204.66746857062503,438.60634704203125 203.4980545006249,438.43574524203126 C179.5134935706251,434.9148877320313 155.718394370625,430.65577309203127 131.948493960625,425.90089416203125 C128.0717048306251,425.12685158203124 124.19315583062507,424.36209837203126 120.3144607506249,423.59767151203124 C106.4994711306249,420.8529247320313 92.81374869062506,417.8233283120312 79.17212677062503,414.3173980720312 C72.7080686106251,412.65615436203126 66.21018612062494,411.23115029203126 59.68750763062508,409.81251526203124 C39.703083660625,405.24678544203124 19.859827200624977,400.0804342220313 0.000007630625077581499,395.00001526203124 C0.000007630625077581499,365.63001526203124 0.000007630625077581499,336.26001526203123 0.000007630625077581499,306.00001526203124 C12.367489410625012,308.24864831203126 12.367489410625012,308.24864831203126 17.773445130625078,309.61305237203123 C18.991352390625025,309.91814728203127 20.209259640625078,310.22324219203125 21.464073180625064,310.53758240203126 C22.09938776062495,310.69841183203124 22.734702340625063,310.85924125203127 23.389268870625074,311.02494430203126 C26.161627130624993,311.72638277203123 28.936192470624974,312.41891304203125 31.710576060625044,313.1122894320313 C33.94180798062507,313.67009668203127 36.172737510624984,314.22910285203125 38.40366363062503,314.78813171203126 C69.14400657062492,322.48261071203126 99.9415059406249,329.68994448203125 131.00000763062508,336.00001526203124 C131.8988870206249,336.18374695203124 132.79776642062507,336.36747864203124 133.72388458062505,336.55677795203127 C185.256148300625,347.0802433320313 237.31070213062503,354.42079578203123 289.7070388806251,358.96485901203124 C290.4239741506251,359.0275849920313 291.1409094206249,359.09031097203126 291.879570010625,359.1549377420313 C330.731644710625,362.40224730203124 369.692445600625,363.3640847020313 408.6637496906251,363.25796509203127 C411.81526435062506,363.24984716203124 414.96677175062496,363.24492483203124 418.11829376062497,363.2406158420313 C447.46124349062507,363.1944831320312 476.75308652062495,362.99801681203127 506.048835750625,361.18037414203127 C509.214403320625,360.98691261203123 512.380512880625,360.80534272203124 515.546882630625,360.62550354203125 C611.513179170625,355.12896482203126 707.137954310625,344.02923325203125 979.947990420625,309.00439453203126 C1173.783242980625,283.4333800520312 1173.783242980625,283.4333800520312 1392.507209780625,263.22004700203127 C1395.953684980625,263.00293339203125 1399.399198550625,262.7739986120313 1402.844734190625,262.5424957320312 C1440.739767560625,260.0364301920313 1478.611088580625,259.6845887420312 1516.578369140625,259.63165283203125 z" fill="#0bd5d5" id="svg_2" class="" fill-opacity="1"/><path d="M1516.578369140625,259.63165283203125 C1520.354209230625,259.62515853203126 1524.130005960625,259.61372181203126 1527.905830380625,259.60121155203126 C1635.154403900625,259.29307225203127 1741.552330540625,270.89156864203125 1883.500007630625,298.06251526203124 C1884.358286590625,298.23175506203125 1885.216565550625,298.4009948720312 1886.100852970625,298.57536316203124 C1891.045003430625,299.55068396203126 1895.988284070625,300.53023235203125 1900.930297850625,301.51632499203123 C1902.4463507006249,301.81864424203127 1903.962569140625,302.12013436203125 1905.478958130625,302.4207630120313 C1907.558840460625,302.83364974203124 1909.637924610625,303.2503275820312 1911.7168045006251,303.66822815203125 C1912.887555240625,303.90231888203124 1914.058305970625,304.1364096020312 1915.264534000625,304.3775939920313 C1918.000007630625,305.00001526203124 1918.000007630625,305.00001526203124 1920.000007630625,306.00001526203124 C1920.000007630625,308.6400152620312 1920.000007630625,311.28001526203127 1920.000007630625,314.00001526203124 C1912.595526890625,313.30365837203124 1905.397488960625,312.0041128120313 1898.105476380625,310.55860901203124 C1896.199484820625,310.18580566203127 1894.293492120625,309.81300807203127 1892.387451170625,309.44045734203127 C1890.372212910625,309.0460174620313 1888.357298110625,308.64995947203124 1886.342445370625,308.25355530203126 C1879.300977630625,306.8691527120312 1872.255847190625,305.50353135203125 1865.210945130625,304.13673401203124 C1864.507918260625,304.00027088203126 1863.804891390625,303.8638077520312 1863.080560680625,303.72320938203126 C1827.703953360625,296.8581634920313 1792.251351720625,290.79987253203126 1756.621162410625,285.39845276203124 C1754.294319500625,285.04475313203125 1751.968057340625,284.68759246203126 1749.642097470625,284.32814026203124 C1731.651481430625,281.5585538120313 1713.605405820625,279.5612586120312 1695.497215270625,277.75460815203127 C1690.567772650625,277.26235737203126 1685.640727160625,276.75211349203124 1680.714958190625,276.2243957520312 C1660.502040050625,274.06536734203127 1640.295950340625,272.46653934203124 1620.000007630625,271.31251526203124 C1618.932240910625,271.2517581220313 1617.864474180625,271.19100097203125 1616.7643508906249,271.12840271203123 C1610.507463260625,270.77717381203126 1604.249695210625,270.45206772203125 1597.990333560625,270.14817810203124 C1595.185436600625,270.00920278203125 1592.381535140625,269.8568245220313 1589.577400210625,269.70338440203125 C1566.971901610625,268.55262724203124 1544.315001460625,268.8031594820313 1521.687507630625,268.81251526203124 C1519.434923810625,268.81245917203125 1517.182339990625,268.81239811203125 1514.929756160625,268.8123321520313 C1476.362407790625,268.82074274203126 1437.789035480625,268.98839241203126 1399.342781070625,272.41969299203123 C1393.589048560625,272.90176583203123 1387.834042040625,273.25796004203124 1382.069831850625,273.58204651203124 C1353.167436870625,275.22080739203125 1324.421592090625,277.7313227120313 1295.630256650625,280.72505188203127 C1289.040823710625,281.40816162203123 1282.450056360625,282.07826339203126 1275.859468460625,282.75012111203125 C1270.7419332106251,283.27200001203124 1265.624598740625,283.79557810203124 1260.507911680625,284.3257141120313 C1250.216043860625,285.38878613203127 1239.922894640625,286.39942049203125 1229.613431930625,287.2785425220313 C1223.524788180625,287.8115858620313 1217.486783870625,288.56728679203127 1211.437507630625,289.43751526203124 C1210.431716610625,289.57995666203124 1209.425925600625,289.72239807203124 1208.389656070625,289.86915588203124 C1207.575290830625,289.98452698203124 1206.760925600625,290.09989807203124 1205.921882630625,290.21876526203124 C1199.359314480625,291.11507274203126 1192.777533580625,291.77909023203125 1186.187507630625,292.43751526203124 C1161.428396120625,294.93086355203127 1136.772943770625,298.13496496203123 1112.114295960625,301.46006775203125 C1100.0678602206249,303.08376533203125 1088.0243460106249,304.62384131203123 1075.941658020625,305.95509338203124 C1066.902279440625,306.96804322203127 1057.911086570625,308.26983288203127 1048.911872860625,309.58815002203124 C1041.744926070625,310.6311369420313 1034.584252380625,311.53710425203127 1027.3808670006251,312.28150940203125 C1021.0411275106251,312.9530794820312 1014.7575841806249,313.9162334320313 1008.458992000625,314.89479065203125 C1002.982822140625,315.73413775203124 997.509898780625,316.4253975720313 992.000007630625,317.00001526203124 C985.948350910625,317.63342770203127 979.948373930625,318.4311602220313 973.937507630625,319.37501526203124 C964.095126840625,320.9148716120312 954.214646330625,322.08665880203125 944.323432920625,323.25770569203127 C935.083657660625,324.35398993203125 925.874804230625,325.5569265120313 916.681648250625,326.99830627203124 C911.630754320625,327.78175176203126 906.583640820625,328.4097346820313 901.500007630625,328.93751526203124 C893.968678690625,329.72099540203124 886.490936690625,330.7732386220313 879.000007630625,331.87501526203124 C867.828595180625,333.51078307203124 856.646258060625,334.89985156203124 845.430366520625,336.18107605203124 C833.973071290625,337.49312797203123 822.548436250625,338.98387369203124 811.125007630625,340.56251526203124 C797.950802500625,342.3802408220313 784.773297710625,343.9545768020313 771.542976380625,345.31642151203124 C757.772351210625,346.7357125720313 743.999941520625,348.28446056203126 730.333747860625,350.50611877203124 C726.576083750625,351.06281994203124 722.811081000625,351.49415745203123 719.035163880625,351.90235901203124 C717.425379200625,352.07868456203124 715.815597440625,352.25503672203126 714.205818180625,352.43141174203123 C713.358370360625,352.52381134203125 712.510922550625,352.6162109420312 711.637794490625,352.71141052203126 C708.962399870625,353.00412999203127 706.287428500625,353.30046067203125 703.612556460625,353.59791565203125 C662.701575680625,358.14615714203126 662.701575680625,358.14615714203126 647.086433410625,359.33204651203124 C639.952247260625,359.88393392203125 632.857136810625,360.6732045520313 625.750007630625,361.50001526203124 C615.201782510625,362.72094139203125 604.660242350625,363.59147258203126 594.066169740625,364.30079651203124 C587.135805400625,364.7669971820312 580.224560810625,365.31438525203123 573.312507630625,366.00001526203124 C551.871589750625,368.09106576203123 530.486102940625,369.42325226203127 508.962898250625,370.30274963203124 C508.01645950062505,370.34194015203127 507.07002075062496,370.38113067203125 506.094902040625,370.42150879203126 C504.33286947062504,370.49399787203123 502.570759150625,370.56463687203126 500.808555600625,370.63284302203124 C497.267961190625,370.7778704020312 493.73981753062503,370.9355227020312 490.20903778062507,371.24331665203124 C477.3235378106251,372.3566693120313 464.40442119062504,372.20248733203124 451.4804763806251,372.23829651203124 C450.135863130625,372.24305194203123 448.7912503606251,372.2479464520312 447.4466381106249,372.25297546203126 C437.36026886062496,372.2899698520313 427.27393779062504,372.3053034220312 417.1875076306251,372.31251526203124 C416.4497865406249,372.31316844203127 415.712065450625,372.31382163203125 414.951989170625,372.31449461203124 C372.25666658062505,372.3517768020313 329.69419525062494,372.31792976203127 287.14405060062495,368.29426575203127 C283.98642121062494,367.9987437120312 280.8276644606251,367.72130726203125 277.6679763806251,367.4487457320313 C229.2653076506249,363.2375811520312 181.11691739062508,355.77040345203125 133.50000763062508,346.18751526203124 C131.8674200406249,345.85978622203123 131.8674200406249,345.85978622203123 130.2018508906251,345.52543640203123 C104.67117018062504,340.39285495203126 79.34010492062498,334.66092670203125 54.0935134906249,328.27638244203126 C43.932194640625085,325.7096154220312 33.74585930062494,323.28878855203124 23.524665830625054,320.9699859620313 C15.626943570624917,319.1702369220312 7.7993386906250635,317.18794641203124 0.000007630625077581499,315.00001526203124 C0.000007630625077581499,312.03001526203127 0.000007630625077581499,309.06001526203124 0.000007630625077581499,306.00001526203124 C7.898233210624994,307.30258593203126 15.630956580625025,309.06093312203126 23.389268870625074,311.02494430203126 C26.161627130624993,311.72638277203123 28.936192470624974,312.41891304203125 31.710576060625044,313.1122894320313 C33.94180798062507,313.67009668203127 36.172737510624984,314.22910285203125 38.40366363062503,314.78813171203126 C69.14400657062492,322.48261071203126 99.9415059406249,329.68994448203125 131.00000763062508,336.00001526203124 C131.8988870206249,336.18374695203124 132.79776642062507,336.36747864203124 133.72388458062505,336.55677795203127 C185.256148300625,347.0802433320313 237.31070213062503,354.42079578203123 289.7070388806251,358.96485901203124 C290.4239741506251,359.0275849920313 291.1409094206249,359.09031097203126 291.879570010625,359.1549377420313 C330.731644710625,362.40224730203124 369.692445600625,363.3640847020313 408.6637496906251,363.25796509203127 C411.81526435062506,363.24984716203124 414.96677175062496,363.24492483203124 418.11829376062497,363.2406158420313 C447.46124349062507,363.1944831320312 476.75308652062495,362.99801681203127 506.048835750625,361.18037414203127 C509.214403320625,360.98691261203123 512.380512880625,360.80534272203124 515.546882630625,360.62550354203125 C611.513179170625,355.12896482203126 707.137954310625,344.02923325203125 979.947990420625,309.00439453203126 C1173.783242980625,283.4333800520312 1173.783242980625,283.4333800520312 1392.507209780625,263.22004700203127 C1395.953684980625,263.00293339203125 1399.399198550625,262.7739986120313 1402.844734190625,262.5424957320312 C1440.739767560625,260.0364301920313 1478.611088580625,259.6845887420312 1516.578369140625,259.63165283203125 z" fill="#2B2820" id="svg_3"/><path d="M1622.38427734375,342.63720703125 C1627.12560445375,342.94998464125 1631.86702674375,343.20976850125 1636.61328125375,343.43359375125 C1691.73556586375,346.15889251125 1747.04105652375,353.60936108125 1801.33740234375,363.35644531125 C1806.88052081375,364.33042613125 1812.43902143375,365.19753726125 1818.00000000375,366.06250000125 C1826.79283429375,367.44582113125 1835.55732027375,368.95782396125 1844.31250000375,370.56250000125 C1845.40369140375,370.76045166125 1846.4948828137499,370.95840332125 1847.61914062375,371.16235351125 C1852.67571101375,372.10250622125 1857.66650829375,373.13844950125 1862.64453125375,374.43359375125 C1870.80631591375,376.52832931125 1879.09229678375,377.97423888125 1887.37500000375,379.50000000125 C1890.57077040375,380.09130780124997 1893.7660849537501,380.68500284125 1896.96093750375,381.28125000125 C1897.72807067375,381.42433594125 1898.49520385375,381.56742187125 1899.28558349375,381.71484375125 C1906.21805865375,383.01918736125 1913.11256736375,384.47473607125 1920.00000000375,386.00000000125 C1920.00000000375,388.64000000125 1920.00000000375,391.28000000125 1920.00000000375,394.00000000125 C1912.59551926375,393.30364311125 1905.39748133375,392.00409755124997 1898.10546875375,390.55859375125 C1896.19947719375,390.18579040125 1894.29348449375,389.81299281125 1892.3874435437501,389.44044208125 C1890.37220527375,389.04600220125 1888.35729048375,388.64994421125 1886.34243774375,388.25354004125 C1879.30097000375,386.86913745125 1872.25583955375,385.50351609125 1865.21093750375,384.13671875125 C1864.50791063375,384.00025562125 1863.80488376375,383.86379249125 1863.08055305375,383.72319412125 C1827.70394573375,376.85814824125 1792.25134409375,370.79985727125 1756.62115478375,365.39843750125 C1754.29431186375,365.04473787125 1751.96804971375,364.68757720125 1749.64208984375,364.32812500125 C1731.65147380375,361.55853855125 1713.60539819375,359.56124335125 1695.49720764375,357.75459289125 C1690.56776501375,357.26234211125 1685.64071953375,356.75209823125 1680.71495056375,356.22438049125 C1660.50203242375,354.06535208125 1640.29594270375,352.46652408125 1620.00000000375,351.31250000125 C1618.93223327375,351.25174286125 1617.86446655375,351.19098572125 1616.76434326375,351.12838745125 C1610.50745563375,350.77715855125 1604.24968758375,350.45205246125 1597.99032592375,350.14816284125 C1595.18542897375,350.00918752125 1592.38152750375,349.85680926125 1589.57739257375,349.70336914125 C1566.97189398375,348.55261198125 1544.31499382375,348.80314422125 1521.68750000375,348.81250000125 C1519.43491617375,348.81244391125 1517.18233235375,348.81238285125 1514.92974853375,348.81231689125 C1475.93348384375,348.82082102125 1436.97670979375,349.10109123125 1398.10156250375,352.51562500125 C1392.97870156375,352.95111038125 1387.85775663375,353.21523261125 1382.72221374375,353.45046997125 C1336.04707777375,355.60943139125 1289.49329663375,361.16207545125 1243.05639648375,366.19580078125 C1242.30629554375,366.27708032125 1241.55619461375,366.35835987125 1240.78336334375,366.44210243125 C1239.66812915375,366.56295487125 1239.66812915375,366.56295487125 1238.53036499375,366.68624878125 C1237.79376018375,366.76606869125 1237.05715538375,366.84588859125 1236.29822921375,366.92812729125 C1234.82986280375,367.08731748125 1233.36151192375,367.24665102125 1231.89317703375,367.40613174125 C1224.13996434375,368.24754554125 1216.3856585737499,369.07126124125 1208.6247558637501,369.83886719125 C1207.94889057375,369.90575902125 1207.27302528375,369.97265085125 1206.57667923375,370.04156971125 C1203.42226958375,370.35282299125 1200.26753932375,370.66022790125 1197.11227417375,370.96269226125 C1188.98538445375,371.75437828125 1180.90117480375,372.76041186125 1172.81250000375,373.87500000125 C1171.69760948375,374.02759529125 1171.69760948375,374.02759529125 1170.56019592375,374.18327331125 C1168.82909071375,374.42091665125 1167.0981342637501,374.65964284125 1165.36718750375,374.89843750125 C1155.40885298375,376.25061781125 1145.42206037375,377.36173362125 1135.43750000375,378.50000000125 C1121.73134165375,380.06413213125 1108.0600726437501,381.75130235125 1094.4013671837502,383.68920898125 C1087.48113352375,384.66881993125 1080.56389947375,385.54638473125 1073.61376953375,386.28198242125 C1063.3910405737502,387.36729667125 1053.19676853375,388.69637870125 1043.0000000037498,390.00000000125 C1042.22897949375,390.09812988125 1041.45795898375,390.19625976125 1040.66357422375,390.29736328125 C1034.61264891375,391.07074761125 1028.5887482737498,391.89536817124997 1022.57812500375,392.93750000125 C1015.79108804375,394.07937738124997 1008.97261490375,394.89418326125 1002.13818359375,395.68847656125 C992.40532030375,396.82201396125 982.67928213375,397.96560898125 973.00000000375,399.50000000125 C963.47085174375,401.00836714125 953.89835711375,402.12388012125 944.31930542375,403.25823974125 C935.08384754375,404.35398307125 925.87972590375,405.55849286125 916.69042968375,406.99609375125 C910.83381444375,407.90286021125 904.97232143375,408.60385689125 899.07983398375,409.23095703125 C892.58679466375,409.92387040125 886.10541207375,410.69772057125 879.62500000375,411.50000000125 C878.65079101375,411.61859375125 877.67658203375,411.73718750125 876.67285156375,411.85937500125 C871.75592106375,412.47211812125 866.87190367375,413.17230294125 861.98828125375,414.01171875125 C856.19705431375,414.99875339125003 850.40213079375,415.68557763125 844.56250000375,416.31250000125 C833.55649537375,417.53376538125 822.59355633375,418.98491298125 811.62500000375,420.50000000125 C799.28107835375,422.20345142125 786.94498077375,423.71431191125 774.54687500375,424.97656250125 C767.87696684375,425.66385983124997 761.25396112375,426.49419980125003 754.62500000375,427.50000000125 C744.85570016375,428.97856555124997 735.05321317375,429.93074922125 725.21972656375,430.87500000125 C717.58299822375,431.61684257125 709.97764474375,432.46679418125 702.37500000375,433.50000000125 C684.30473612375,435.94469681124997 666.17705992375,437.80337481125 647.99926757375,439.23071289125 C640.56214117375,439.82954006125 633.16071845375,440.63741908125 625.75000000375,441.50000000125 C615.20178077375,442.72098886125 604.66023302375,443.59145744125 594.0661621137499,444.30078125125 C587.13579777375,444.76698192125 580.22455318375,445.31436999125003 573.3125000037501,446.00000000125 C551.8715821237499,448.09105051125 530.48609531375,449.42323700125 508.9628906237499,450.30273437125 C508.01645187374993,450.34192489125 507.07001312374996,450.38111542125 506.0948944137499,450.42149353125 C504.3328618437499,450.49398261125 502.57075152375,450.56462161125 500.8085479737499,450.63282776125 C495.92044533374997,450.83305085125 491.04857583374996,451.13223144125 486.16967773374995,451.49487305125 C461.75295554375,453.28146247125 437.21958690375004,453.23815521125 412.7500000037501,453.25000000125 C411.9081049737499,453.25088371125 411.06620994375,453.25176742125 410.19880294375,453.25267792125 C380.24794824375,453.28041630125 350.4862543337499,452.36597846125 320.5947265637501,450.36718750125 C315.83301676375004,450.04940581125 311.07061246374997,449.77647861125 306.3046875037501,449.53125000125 C273.02514392374997,447.75405154125 239.89929945375002,443.75222720125 206.93750000375007,438.93750000125 C205.80248046375004,438.77191589125 204.6674609337499,438.60633179125 203.4980468737499,438.43572998125 C179.51348594375008,434.91487248125 155.71838674375,430.65575783125 131.9484863237501,425.90087891125 C128.0716972037501,425.12683632125 124.19314819374995,424.36208312125 120.3144531237499,423.59765625125 C106.4994635037499,420.85290947125 92.81374105374994,417.82331305125 79.17211914375002,414.31738281125 C72.71006997375002,412.65665541125 66.20771945375009,411.22684889125003 59.687500003750074,409.81250000125 C39.66616174375008,405.38780120125 19.841699593750036,400.16055226125 3.750074029085226e-9,395.00000000125 C3.750074029085226e-9,392.03000000125 3.750074029085226e-9,389.06000000125 3.750074029085226e-9,386.00000000125 C9.616613253750074,388.21382537125 19.20261448375004,390.53325670125 28.769531253750074,392.95312500125 C29.81128509375003,393.21653183125 30.853038943750107,393.47993866125 31.926361083749953,393.75132751125 C32.99222442375003,394.02086746125 34.05808776375011,394.29040741125 35.156250003750074,394.56811523125 C57.06555137374994,400.10858738125 78.9939713737499,405.43251565125 101.09277343374993,410.16210937125 C104.89997390374992,410.97854976125 108.70415478375003,411.80785372125 112.50781250375007,412.64062500125 C156.92531689375005,422.32870347125 201.79200306374992,430.11570885125 247.00000000375007,435.00000000125 C247.96812622375,435.10463562125 248.93625244374994,435.20927124125 249.93371582374994,435.31707764124997 C256.34322961375005,436.00470061125 262.75505777374997,436.66588037125 269.1695556637501,437.30532837124997 C271.2117210337501,437.50898885125 273.25366025375,437.71493936125 275.29528808374994,437.92391968125 C283.18852374375,438.72456170124997 291.0897179537501,439.39247044125 299.0000000037501,440.00000000125 C299.81154163375004,440.06285187125 300.62308326375,440.12570373125 301.4592170737501,440.19046020125 C336.25407525375,442.85880692125 370.9039010137501,443.41689246125 405.79016113374996,443.26428223125004 C411.0270821337499,443.24509095125 416.26396897375,443.24116529125 421.5009202937499,443.23742008125 C457.85962426375,443.20914102125 494.03542836375004,442.46404864125 530.3247680637501,440.19366455125 C533.1568186837501,440.01784260125 535.9891819137499,439.84737716125 538.8215541837501,439.67682838125 C552.10955542375,438.87521492125 565.3921736837499,438.02404690125 578.6601562537501,436.93359375125 C579.62940536375,436.85456314124997 580.5986544837499,436.77553253125 581.59727478375,436.69410705125 C586.1129732337499,436.30864446124997 590.5331426037501,435.78539528125 595.0000000037501,435.00000000125 C596.3742270037501,434.87959804125 597.75091532375,434.78307335125 599.12890625375,434.71875000125 C600.21655273375,434.66267578125 600.21655273375,434.66267578125 601.32617187375,434.60546875125 C602.82095488375,434.53497243125 604.31574661375,434.46466089125 605.81054687375,434.39453125125 C606.53435547375,434.35714844125 607.25816406375,434.31976562125 608.00390625375,434.28125000125 C608.65174072375,434.25095703125 609.29957519375,434.22066406125 609.96704101375,434.18945312125 C612.05343852375,434.03367790125003 612.05343852375,434.03367790125003 614.27978515375,433.52294922125 C617.67765227375,432.86972436125 621.07452721375,432.60754375125 624.51953125375,432.35156250125 C626.01995693375,432.23388185125 627.52036309375,432.11595198125 629.02075195375,431.99780273125 C629.80277984375,431.93712616125003 630.58480774375,431.87644958125 631.39053344375,431.81393432125003 C643.84736575375,430.84219373125 656.24416020375,429.72046145125 668.63110351375,428.05957031125 C676.63358418375,426.99941562125 684.64708592375,426.27143732125 692.69458007375,425.64624023125 C693.59458740375,425.57477783125 694.49459472375,425.50331543125003 695.42187500375,425.42968750125 C696.21174804375,425.37022949125003 697.00162109375,425.31077148125 697.81542968375,425.24951172125 C699.96737214375,425.05479248125 699.96737214375,425.05479248125 701.88403320375,424.51367187125 C704.72113929375,423.82493630125 707.52572840375,423.60915665125003 710.43359375375,423.35156250125 C712.35111450375,423.17645141125 712.35111450375,423.17645141125 714.30737304375,422.99780273125 C714.98134124375,422.93712616125003 715.65530944375,422.87644958125 716.34970092375,422.81393432125003 C727.18984983375,421.83296051125 737.97010951375,420.68535222125 748.73413086375,419.05078125125 C754.14847192375,418.23743867125 759.54776240375,417.61768589125 765.00000000375,417.12500000125 C775.35897271375,416.17414065125 785.64497851375,414.72071711125 795.94650268375,413.29507446125 C809.40295584375,411.43709197124997 822.87414037375,409.80699219125 836.37915039375,408.34423828125 C843.44302375375,407.57219391125 850.44891286375,406.66541871125 857.45043945375,405.44409180125 C867.21346472375,403.74353229125 877.08994343375,402.72100181125 886.95141601375,401.78515625125 C891.26904058375,401.35747366124997 895.52067057375,400.76539195125 899.79687500375,400.02734375125 C906.03057339375,398.95797487125003 912.27582602375,398.23894137125 918.56250000375,397.56250000125 C927.16325431375,396.60808502125 935.69435449375,395.47990906125 944.22875976375,394.05493164125 C950.42584602375,393.03998944125 956.62815566375,392.37584930125 962.87670898375,391.76928711125 C968.45704458375,391.20958880125 973.96818103375,390.41893703125 979.50000000375,389.50000000125 C986.61039216375,388.31883288125 993.70217771375,387.46557815125 1000.87500000375,386.76953125125 C1007.25088174375,386.12984574125 1013.54026596375,385.15838516125 1019.85961914375,384.10766601125 C1026.34623407375,383.05080149125 1032.83940535375,382.34128346125 1039.3781738237499,381.69702148125 C1044.41172954375,381.19267495125 1049.3539595237498,380.48112536125 1054.33447265375,379.58764648125 C1059.14992909375,378.81564677125 1063.9803937737502,378.21768695125 1068.8203125037498,377.62109375125 C1069.8721723937501,377.49053589125 1070.92403228375,377.35997803125 1072.0077667237501,377.22546387125 C1084.79009903375,375.64509891125 1097.58058625375,374.13135164125 1110.37182617375,372.62500000125 C1122.22814196375,371.22724875125 1134.06692446375,369.77875455125 1145.87333679375,368.00195312125 C1151.73470818375,367.13126898125 1157.59739024375,366.51595895125 1163.50000000375,366.00000000125 C1171.60668502375,365.28088862125 1179.62190615375,364.24352559125 1187.66992187375,363.03735351125 C1193.38742593375,362.19282060125 1199.06441902375,361.61771950125 1204.83544922375,361.26342773125 C1207.89444551375,361.00878671125 1210.85665417375,360.57501872125 1213.88281250375,360.06640625125 C1221.51693786375,358.86281329125 1229.18013856375,358.16648406125 1236.87500000375,357.50000000125 C1246.20559326375,356.68757367125 1255.46583395375,355.71033648125 1264.74560546375,354.42822265125 C1268.37941870375,353.95007499125 1271.96676810375,353.64267530125 1275.62500000375,353.43750000125 C1280.04012263375,353.18843251124997 1280.04012263375,353.18843251124997 1284.39843750375,352.50390625125 C1288.59666810375,351.69073546125003 1292.85463618375,351.60687237125 1297.11718750375,351.39453125125 C1299.9619819837499,351.23887268125 1302.72269333375,351.05546133125 1305.51953125375,350.49609375125 C1309.50972838375,349.69805432125 1313.56222752375,349.65060533125 1317.61914062375,349.48242187125 C1322.00122541375,349.26434629125 1326.33771560375,348.86072839125 1330.69554138375,348.34764099125 C1343.80707780375,346.80503747125 1356.95629287375,345.90334682125 1370.12500000375,345.00000000125 C1371.38076843375,344.91317963125 1372.63653686375,344.82635925125 1373.93035888375,344.73690796125 C1456.47914123375,339.04833073125 1539.77394721375,337.15888751125 1622.38427734375,342.63720703125 z" fill="#2F2C25" id="svg_4"/></g></svg>