<svg xmlns="http://www.w3.org/2000/svg" version="1.1" width="1920" height="520"><rect id="backgroundrect" width="100%" height="100%" x="0" y="0" fill="none" stroke="none"/>


<g class="currentLayer" style=""><title>Layer 1</title><path d="M576.54296875,202.83203125 C578.50661822,202.82962146 580.47026769,202.82720845 582.43391687,202.82457083 C588.58249409,202.81654586 594.7310568,202.81397523 600.87963867,202.81469727 C606.39496789,202.81522826 611.91022596,202.8081906 617.42553711,202.79418945 C650.00129398,202.71343554 682.47782284,202.97981849 715,205 C716.25890045,205.07570221 717.5178009,205.15140442 718.81484985,205.22940063 C725.98666896,205.66719495 733.15009157,206.17954862 740.3125,206.75 C741.3682119800001,206.83270142 742.42392395,206.91540283 743.5116272,207.00061035 C788.54336432,210.55791669 833.3502692100001,216.1972018 878,223 C879.20227234,223.18312744 880.4045446800001,223.36625487999999 881.64324951,223.55493164 C915.63273809,228.76517862 949.46319773,234.8561746 983.26953125,241.1328125 C984.0150390399999,241.27121473 984.76054682,241.40961696 985.52864575,241.55221319 C1001.4782445000001,244.51394308 1017.4251739599999,247.48972381 1033.36763191,250.48965836 C1063.98785737,256.25136025 1094.62263191,261.88941669 1125.33286047,267.15350723 C1127.53197768,267.53048226 1129.7309667499999,267.90819827 1131.92995071,268.28594971 C1185.7960681099999,277.52807989 1239.8782956999999,284.94399952000003 1294.375,289.25 C1295.3290975999998,289.3272229 1296.28319519,289.4044458 1297.2662048299999,289.48400879 C1336.18617356,292.58574025999997 1375.19554934,293.35804258999997 1414.22260284,293.25794983000003 C1417.56919858,293.24983215 1420.91578747,293.24490918 1424.26239014,293.24060059 C1456.40470323,293.19303688 1488.49172941,292.92791665 1520.5939331099999,291.18359375 C1524.2642951,290.98575397 1527.9350654,290.79712144 1531.60595703,290.609375 C1616.91742114,286.21732022000003 1701.95359236,278.33780555 1852.00390625,261.91796875 C1853.15089241,261.7901042 1854.29787857,261.66223965 1855.47962189,261.53050041 C1866.65030748,260.28406997 1877.81961696,259.02785241 1888.98388672,257.72509766 C1889.81601024,257.62836541 1890.64813375,257.53163317 1891.50547314,257.43196964 C1895.25938167,256.99548692999997 1899.01279556,256.55559328 1902.76527405,256.10697937 C1904.0337468,255.95864151 1905.30221954,255.81030365 1906.60913086,255.6574707 C1907.68593613,255.52927444 1908.76274139,255.40107819 1909.87217712,255.26899719 C1913.23688845,254.97962726 1916.62286848,255 1920,255 C1920,342.45 1920,429.9 1920,520 C1286.4,520 652.8,520 0,520 C0,255 0,255 1,254 C2.698234370000023,253.70859668 4.406857909999985,253.47755294 6.117416380000009,253.27041626 C7.787260110000034,253.06505454 7.787260110000034,253.06505454 9.49083804999998,252.85554409 C11.344734789999961,252.63435201 11.344734789999961,252.63435201 13.23608397999999,252.40869141000002 C14.5341545,252.25042657 15.83222502000001,252.09216173 17.16963099999998,251.92910099 C20.769513800000027,251.49040617 24.370045249999976,251.05725714 27.97072172000003,250.62513137 C31.021192980000023,250.25837202 34.07128591000003,249.88852053 37.12137723000001,249.51861686 C47.03260793000004,248.31663665 56.94507367999995,247.12502469 66.85773325000002,245.93489599 C70.29102809,245.52246944 73.72422625000002,245.1092416 77.15741925999998,244.69596845 C168.83515902,233.66031848 260.54026227,223.00101473 499.0625,204.8125 C499.83391327,204.77547974 500.60532653999996,204.73845947 501.40011597,204.70031738 C506.9323994,204.43956324 512.4657872,204.21546843 518,204 C519.5603908,203.93920509 519.5603908,203.93920509 521.15230465,203.87718201 C539.62097133,203.17344291 558.06023003,202.83753557 576.54296875,202.83203125 z" fill="#1a1aeb" id="svg_1" class="" fill-opacity="1"/><path d="M576.54296875,202.83203125 C578.50661822,202.82962146 580.47026769,202.82720845 582.43391687,202.82457083 C588.58249409,202.81654586 594.7310568,202.81397523 600.87963867,202.81469727 C606.39496789,202.81522826 611.91022596,202.8081906 617.42553711,202.79418945 C650.00129398,202.71343554 682.47782284,202.97981849 715,205 C716.25890045,205.07570221 717.5178009,205.15140442 718.81484985,205.22940063 C725.98666896,205.66719495 733.15009157,206.17954862 740.3125,206.75 C741.3682119800001,206.83270142 742.42392395,206.91540283 743.5116272,207.00061035 C788.54336432,210.55791669 833.3502692100001,216.1972018 878,223 C879.20227234,223.18312744 880.4045446800001,223.36625487999999 881.64324951,223.55493164 C915.63273809,228.76517862 949.46319773,234.8561746 983.26953125,241.1328125 C984.0150390399999,241.27121473 984.76054682,241.40961696 985.52864575,241.55221319 C1001.4782445000001,244.51394308 1017.4251739599999,247.48972381 1033.36763191,250.48965836 C1063.98785737,256.25136025 1094.62263191,261.88941669 1125.33286047,267.15350723 C1127.53197768,267.53048226 1129.7309667499999,267.90819827 1131.92995071,268.28594971 C1185.7960681099999,277.52807989 1239.8782956999999,284.94399952000003 1294.375,289.25 C1295.3290975999998,289.3272229 1296.28319519,289.4044458 1297.2662048299999,289.48400879 C1336.18617356,292.58574025999997 1375.19554934,293.35804258999997 1414.22260284,293.25794983000003 C1417.56919858,293.24983215 1420.91578747,293.24490918 1424.26239014,293.24060059 C1456.40470323,293.19303688 1488.49172941,292.92791665 1520.5939331099999,291.18359375 C1524.2642951,290.98575397 1527.9350654,290.79712144 1531.60595703,290.609375 C1616.91742114,286.21732022000003 1701.95359236,278.33780555 1852.00390625,261.91796875 C1853.15089241,261.7901042 1854.29787857,261.66223965 1855.47962189,261.53050041 C1866.65030748,260.28406997 1877.81961696,259.02785241 1888.98388672,257.72509766 C1889.81601024,257.62836541 1890.64813375,257.53163317 1891.50547314,257.43196964 C1895.25938167,256.99548692999997 1899.01279556,256.55559328 1902.76527405,256.10697937 C1904.0337468,255.95864151 1905.30221954,255.81030365 1906.60913086,255.6574707 C1907.68593613,255.52927444 1908.76274139,255.40107819 1909.87217712,255.26899719 C1913.26185253,254.97748031 1916.59946944,254.95493271 1920,255 C1920,257.64 1920,260.28 1920,263 C1913.67204358,264.52941545 1907.54467521,265.4659993 1901.0625,266 C1885.88954371,267.30364302 1870.78227376,269.13276471 1855.67318726,271.02310181 C1829.48770021,274.29825843000003 1803.27211564,277.20508401 1777.02441406,279.93261719 C1771.47803778,280.50904266 1765.93254655,281.09354725000003 1760.38723373,281.6801033 C1735.49897065,284.30871422 1710.60594256,286.73261603000003 1685.66122437,288.76358032 C1684.72363659,288.84038151 1683.78604881,288.91718269 1682.82004929,288.99631119000003 C1681.08754639,289.13765891 1679.35488322,289.27706299 1677.62202835,289.41402817 C1673.04982991,289.78571829 1668.5392132,290.32034891 1664,291 C1661.92891563,291.17776917000003 1659.85573349,291.33251606 1657.78125,291.46484375 C1656.61489014,291.5414624 1655.44853027,291.61808105 1654.24682617,291.69702148 C1653.01037354,291.77637939 1651.7739209,291.8557373 1650.5,291.9375 C1641.7202588,292.52122032 1632.95097827,293.14662214 1624.1875,293.9375 C1594.02070328,296.64946712 1563.8222795299998,298.56696603 1533.5701293900001,300.00195313 C1530.12493714,300.16689429 1526.68005558,300.3378867 1523.23515511,300.50879669 C1490.20123773,302.14490794 1457.20235616,303.23856034 1424.125,303.25 C1423.33480721,303.25058914 1422.5446144100001,303.25117828 1421.73047638,303.25178528000004 C1333.50573435,303.29772284 1246.39665743,295.87064095 1085.70155334,269.84928894 C1074.45386916,267.69022395 1063.18391358,265.65794772 1051.91259766,263.6265564 C1034.12061475,260.41868088 1016.34682234,257.12962265 998.58895874,253.73815918 C954.1680159499999,245.2635299 909.58628469,237.17049965 864.82470703,230.70068359 C861.38147596,230.20291982 857.9401309,229.69373015 854.49951172,229.17822266 C805.26544355,221.81335824 755.73053693,216.46591787 706,214 C704.48264252,213.92329071 704.48264252,213.92329071 702.93463135,213.84503174 C626.80742523,210.0461275 550.70307787,211.51027688 474.63690185999997,215.74359131 C470.26106551,215.9866499 465.88480119,216.22090149 461.50830078,216.45166016 C431.15707580000003,218.05424849 400.86718636,219.86725052 370.62060547,222.89453125 C362.00396473,223.74598221 353.38940607999996,224.42867956 344.75,225 C334.42265291,225.68717951 324.16624938999996,226.69326321 313.88647461,227.89233398 C306.37012098,228.76191726 298.85546608,229.4688434 291.3125,230.0625 C283.67897689,230.66648588 276.11916713,231.43465852 268.52734375,232.4375 C262.48855113,233.21181208000002 256.4309408,233.81489306 250.375,234.4375 C248.5172998,234.62880493 248.5172998,234.62880493 246.62207031000003,234.82397461 C240.15985509,235.48497681999999 233.69629709999998,236.12923181 227.23046875,236.75390625 C215.03336173000002,237.93749056000001 202.88315209,239.20833697 190.75195313,240.94750977 C184.86464661999997,241.78052653999998 178.98518869999998,242.41782518 173.0625,242.9375 C164.50863266,243.69327968 156.01193383999998,244.74380667 147.5,245.875 C135.72385019,247.43617933000002 123.93783267999999,248.80917548 112.125,250.0625 C108.98174258,250.39687031 105.83851188,250.73149079 102.6953125,251.06640625 C101.94191589000002,251.14667053 101.18851928999999,251.22693481 100.41229248000002,251.30963135 C85.29992107999999,252.92518471 70.23604346000002,254.81039601 55.1875,256.9375 C43.623660169999994,258.56922204 32.04389857000001,259.96140174 20.4375,261.25 C19.642662050000013,261.33885468 18.847824100000025,261.42770935 18.028900150000027,261.51925659 C15.768277850000004,261.77100431 13.50729659000001,262.01915141 11.24609375,262.265625 C9.292076419999944,262.47880371 9.292076419999944,262.47880371 7.298583979999989,262.69628906 C4,263 4,263 0,263 C-0.09765625,256.84765625 -0.09765625,256.84765625 0,255 C1.6714691299999913,253.32853087 3.81897213000002,253.54874180000002 6.117416380000009,253.27041626 C7.787260110000034,253.06505454 7.787260110000034,253.06505454 9.49083804999998,252.85554409 C11.344734789999961,252.63435201 11.344734789999961,252.63435201 13.23608397999999,252.40869141000002 C14.5341545,252.25042657 15.83222502000001,252.09216173 17.16963099999998,251.92910099 C20.769513800000027,251.49040617 24.370045249999976,251.05725714 27.97072172000003,250.62513137 C31.021192980000023,250.25837202 34.07128591000003,249.88852053 37.12137723000001,249.51861686 C47.03260793000004,248.31663665 56.94507367999995,247.12502469 66.85773325000002,245.93489599 C70.29102809,245.52246944 73.72422625000002,245.1092416 77.15741925999998,244.69596845 C168.83515902,233.66031848 260.54026227,223.00101473 499.0625,204.8125 C499.83391327,204.77547974 500.60532653999996,204.73845947 501.40011597,204.70031738 C506.9323994,204.43956324 512.4657872,204.21546843 518,204 C519.5603908,203.93920509 519.5603908,203.93920509 521.15230465,203.87718201 C539.62097133,203.17344291 558.06023003,202.83753557 576.54296875,202.83203125 z" fill="#2B2820" id="svg_2"/></g></svg>