<svg xmlns="http://www.w3.org/2000/svg" version="1.1" width="1920" height="520"><rect id="backgroundrect" width="100%" height="100%" x="0" y="0" fill="none" stroke="none"/>






<g class="currentLayer" style=""><title>Layer 1</title><path d="M413.34375,83.796875 C414.87101774,83.78985196 416.39828519,83.78276515 417.92555237,83.77561951 C422.78370586,83.75620898 427.64181165,83.75118466 432.5,83.75 C433.3284782,83.74955814 434.15695641,83.74911629 435.01054001,83.74866104 C459.67666583,83.74176324 484.17667334,84.00429581 508.71740723,86.74676514 C511.12158992,87.0134894 513.5268917,87.26760882 515.93261719,87.52001953 C541.79975487,90.26008585 567.44124636,94.18095869 593,99 C593.82062927,99.15450623 594.64125854,99.30901245 595.48675537,99.46820068 C647.58195376,109.33904644 699.135799,123.12006801999999 750,138 C751.0153381299999,138.29696777 752.03067627,138.59393555 753.0767822299999,138.89990233999998 C780.33984033,146.89148354 807.4592451,155.3429313 834.52734375,163.96875 C835.61814885,164.31618129999998 835.61814885,164.31618129999998 836.73099041,164.67063141 C871.29615217,175.68254604 905.72061861,187.10749605 940.12282008,198.61673212 C947.31809344,201.02360232 954.51532481,203.42458547 961.71272373,205.82509041 C990.20980222,215.32959146 1018.70012763,224.85047151 1047.11650085,234.59420776 C1060.56578184,239.20505825 1074.04785972,243.70882244 1087.5625,248.125 C1088.74848785,248.5129776 1089.93447571,248.9009552 1091.15640259,249.3006897 C1154.25060485,269.91786041 1217.69148593,289.49862330999997 1282,306 C1282.84961304,306.21873779 1283.69922607,306.43747558999996 1284.57458496,306.6628418 C1355.7722664100002,324.96935601 1427.48667741,336.68749834 1501,339 C1502.10327637,339.03609374999996 1503.20655273,339.07218750000004 1504.34326172,339.109375 C1510.57278061,339.28457679999997 1516.77207334,339.20658308 1523,339 C1523.69039368,338.97808594 1524.38078735,338.95617187 1525.09210205,338.93359375 C1609.01173183,336.22902006000004 1689.7756037,318.81338152 1807.10986328,269.87506104 C1809.06460582,268.97008998 1811.02055706,268.06776511 1812.9765625,267.16552734000004 C1840.91587278,254.25920009 1868.57898097,240.71878763 1895.72509766,226.21240234 C1900.34872422,223.74825451 1904.9871267,221.31219209 1909.625,218.875 C1910.54595459,218.38845947 1911.46690918,217.90191895 1912.41577148,217.40063477 C1913.68336304,216.73439087 1913.68336304,216.73439087 1914.9765625,216.0546875 C1915.73018066,215.65749512 1916.48379883,215.26030273 1917.26025391,214.85107422 C1919,214 1919,214 1920,214 C1920,314.98 1920,415.96 1920,520 C1286.4,520 652.8,520 0,520 C0,419.02 0,318.03999999999996 0,214 C25.359939429999997,200.16730576 25.359939429999997,200.16730576 36.2890625,194.72265625 C37.535871009999994,194.09857175000002 38.782561199999975,193.47425084 40.02914428999998,192.84971618999998 C42.60359663000003,191.56104375 45.17941264000001,190.27515538 47.75634766000002,188.99145507999998 C50.965104740000015,187.39274179 54.17020266999998,185.78684398000001 57.37439251000001,184.17900085 C81.91031805,171.87359583 106.72005845000001,160.22595167 131.9375,149.375 C132.87091217,148.97234924 133.80432434,148.56969849 134.76602172999998,148.15484619 C149.65505553999998,141.74216207 164.61237393,135.67320824 179.85449219,130.14697266000002 C182.88388537,129.04233984 185.89967929,127.90658049000001 188.9140625,126.76171875 C259.70643727000004,100.16897215 337.60604403,84.01363691 413.34375,83.796875 z" fill="#0bd5d5" id="svg_1" class="" fill-opacity="1"/><path d="M413.34375,83.796875 C414.87101774,83.78985196 416.39828519,83.78276515 417.92555237,83.77561951 C422.78370586,83.75620898 427.64181165,83.75118466 432.5,83.75 C433.3284782,83.74955814 434.15695641,83.74911629 435.01054001,83.74866104 C459.67666583,83.74176324 484.17667334,84.00429581 508.71740723,86.74676514 C511.12158992,87.0134894 513.5268917,87.26760882 515.93261719,87.52001953 C541.79975487,90.26008585 567.44124636,94.18095869 593,99 C593.82062927,99.15450623 594.64125854,99.30901245 595.48675537,99.46820068 C647.58195376,109.33904644 699.135799,123.12006801999999 750,138 C751.0153381299999,138.29696777 752.03067627,138.59393555 753.0767822299999,138.89990233999998 C780.33984033,146.89148354 807.4592451,155.3429313 834.52734375,163.96875 C835.61814885,164.31618129999998 835.61814885,164.31618129999998 836.73099041,164.67063141 C871.29615217,175.68254604 905.72061861,187.10749605 940.12282008,198.61673212 C947.31809344,201.02360232 954.51532481,203.42458547 961.71272373,205.82509041 C990.20980222,215.32959146 1018.70012763,224.85047151 1047.11650085,234.59420776 C1060.56578184,239.20505825 1074.04785972,243.70882244 1087.5625,248.125 C1088.74848785,248.5129776 1089.93447571,248.9009552 1091.15640259,249.3006897 C1154.25060485,269.91786041 1217.69148593,289.49862330999997 1282,306 C1282.84961304,306.21873779 1283.69922607,306.43747558999996 1284.57458496,306.6628418 C1355.7722664100002,324.96935601 1427.48667741,336.68749834 1501,339 C1502.10327637,339.03609374999996 1503.20655273,339.07218750000004 1504.34326172,339.109375 C1510.57278061,339.28457679999997 1516.77207334,339.20658308 1523,339 C1523.69039368,338.97808594 1524.38078735,338.95617187 1525.09210205,338.93359375 C1609.01173183,336.22902006000004 1689.7756037,318.81338152 1807.10986328,269.87506104 C1809.06460582,268.97008998 1811.02055706,268.06776511 1812.9765625,267.16552734000004 C1840.91587278,254.25920009 1868.57898097,240.71878763 1895.72509766,226.21240234 C1900.34872422,223.74825451 1904.9871267,221.31219209 1909.625,218.875 C1910.54595459,218.38845947 1911.46690918,217.90191895 1912.41577148,217.40063477 C1913.68336304,216.73439087 1913.68336304,216.73439087 1914.9765625,216.0546875 C1915.73018066,215.65749512 1916.48379883,215.26030273 1917.26025391,214.85107422 C1919,214 1919,214 1920,214 C1920,264.15999999999997 1920,314.32 1920,366 C1907.13,372.6 1894.26,379.2 1881,386 C1874.73,389.3 1868.46,392.6 1862,396 C1844.88178625,404.79397707 1827.53209008,413.06551428 1810,421 C1809.06800781,421.4221579 1809.06800781,421.4221579 1808.1171875,421.85284424 C1771.72446802,438.31170435 1733.90014173,454.47002392 1695.14746094,464.42871094 C1692.80697834,465.05134956 1690.48632366,465.72662926 1688.1640625,466.4140625 C1667.54150449,472.516777 1646.70396297,477.08016063 1625.49072266,480.57519531 C1622.00003152,481.17054942 1618.53498036,481.86871917 1615.0625,482.5625 C1604.44898096,484.57164352 1593.72877617,485.78438961 1583,487 C1582.11683105,487.10199707 1581.23366211,487.20399414 1580.32373047,487.30908203 C1535.06879057,492.43768596 1488.42644762,491.36459432 1443.15026855,487.19598389 C1441.17145299,487.0156269 1439.19171532,486.84546368 1437.21191406,486.67626953 C1400.49058436,483.51493368 1364.00013393,476.74956379 1328,469 C1326.75557129,468.7328418 1325.51114258,468.46568359 1324.2290039099998,468.19042969 C1282.87303715,459.17761724 1242.00004099,447.72620023 1201.45703125,435.62548828 C1196.26757094,434.07712025 1191.0720463500002,432.55001889 1185.875,431.02734375 C1168.63255201,425.96639664 1151.49388928,420.65717177 1134.41091919,415.07873535 C1128.80131689,413.2513261 1123.17951099,411.46353639 1117.5546875,409.68359375 C1116.6429325899999,409.39505524 1115.7311776699999,409.10651672 1114.7917938199998,408.80923462 C1113.8684877,408.51705048 1112.94518158,408.22486633 1111.9938964799999,407.92382812 C1080.22013968,397.86804819 1048.64830988,387.26092854 1017.11083984,376.48901367 C1002.9405386,371.65317975 988.74291554,366.90239321 974.53632832,362.17456532 C973.74590735,361.91151443 972.95548639,361.64846354 972.14111328,361.37744141 C971.33455134,361.1090253 970.52798941,360.84060919 969.6969862,360.56405926 C961.38355464,357.79648506 953.07400662,355.01732583 944.76449585,352.23800659 C937.61373325,349.84628905 930.46203448,347.4573761 923.3102016400001,345.06886101 C918.0990882599999,343.32834547 912.8883635899999,341.58668341 907.6784668,339.8425293 C883.34181898,331.69618663 858.9778685399999,323.68355298 834.4653778100001,316.08157349 C829.34150507,314.48236982000003 824.2326238,312.83772266 819.125,311.1875 C814.7518661199999,309.78578371000003 810.37663364,308.39074604999996 806,307 C805.25248474,306.76236938 804.50496948,306.52473877 803.73480225,306.27990723 C767.88113002,294.89331968 731.78373473,284.53835111 695.4839782700001,274.67584229 C693.2306181700001,274.06274672999996 690.97804015,273.4468941 688.7258300799999,272.82958984000004 C665.63555619,266.50793651000004 642.40658058,261.01848969 619,256 C618.18509094,255.82426453 617.37018188,255.64852905 616.53057861,255.46746826 C582.2475891500001,248.08179339 547.6618164500001,242.61250834 512.8125,238.6875 C511.51151367,238.54022461 510.21052734,238.39294922 508.87011719,238.24121094 C504.58299855,237.78436051 500.29489645,237.37569691 496,237 C495.01472321,236.9135321 494.02944641,236.82706421 493.01431274,236.73797607 C474.84472975,235.18893945 456.79302666,234.66948876 438.5625,234.75 C436.60251572,234.75564972 436.60251572,234.75564972 434.60293579,234.76141357 C393.62433269,234.88922362 352.45566157,236.77313777 312.23583984,245.31713867 C308.66796175,246.07007024 305.08841867,246.7276602 301.5,247.375 C234.40097042,259.86283392 170.89237691,283.81695849 109,312 C108.00848938000001,312.45031586 108.00848938000001,312.45031586 106.99694824,312.90972899999997 C85.64409519999998,322.61452851 64.66488546,333.07798039 43.6875,343.5625 C42.69101943999999,344.06029842 42.69101943999999,344.06029842 41.674407959999996,344.56815338 C37.7895934,346.50908966 33.90621844999998,348.45286146 30.024805070000014,350.4005909 C28.267882129999975,351.28196089 26.510199849999992,352.16181672 24.752487180000003,353.04161072 C17.94781642999999,356.46351409 11.237170610000021,360.01426932 4.575027470000009,363.70372009 C2,365 2,365 0,365 C0,315.16999999999996 0,265.34000000000003 0,214 C25.359939429999997,200.16730576 25.359939429999997,200.16730576 36.2890625,194.72265625 C37.535871009999994,194.09857175000002 38.782561199999975,193.47425084 40.02914428999998,192.84971618999998 C42.60359663000003,191.56104375 45.17941264000001,190.27515538 47.75634766000002,188.99145507999998 C50.965104740000015,187.39274179 54.17020266999998,185.78684398000001 57.37439251000001,184.17900085 C81.91031805,171.87359583 106.72005845000001,160.22595167 131.9375,149.375 C132.87091217,148.97234924 133.80432434,148.56969849 134.76602172999998,148.15484619 C149.65505553999998,141.74216207 164.61237393,135.67320824 179.85449219,130.14697266000002 C182.88388537,129.04233984 185.89967929,127.90658049000001 188.9140625,126.76171875 C259.70643727000004,100.16897215 337.60604403,84.01363691 413.34375,83.796875 z" fill="#abecec" id="svg_2" class="" fill-opacity="1"/><path d="M637.14111328125,186.08935546875 C640.57132610125,186.89883881875 644.00371686125,187.69770301875 647.43753052125,188.49169921875 C671.47098882125,194.04977794875 695.31110612125,200.11146865875 719.00000000125,206.99999999875 C721.37235547125,207.68763926875 723.74475399125,208.37513003875 726.11718750125,209.06249999875 C730.70239251125,210.39167649875 735.28697328125,211.72295339875 739.87081909125,213.05680846875 C745.86442992125,214.80082832875001 751.86012170125,216.53720510875002 757.85937500125,218.26171874875 C785.06299734125,226.08871614875 812.02912914125,234.60061580875 838.93505859125,243.39013671875 C845.90363811125,245.66560262875 852.87423187125,247.93471891875 859.84741211125,250.19604491875 C885.13080424125,258.39880389875 910.36412949125,266.74522221875 935.57476807125,275.16870116875 C940.36392803125,276.76852545875 945.15366381125,278.36662384875 949.9433593712499,279.96484374875 C955.58735018125,281.84821599875 961.23125972125,283.73182997875 966.87474060125,285.61672973875 C975.6475853112499,288.54675604875 984.42122385125,291.47433834875 993.19750976125,294.39404296875 C994.8237788812501,294.93528465875 996.45004541125,295.47653408875 998.0763092012501,296.01779174875 C1001.0401380112501,297.00419001875 1004.00432053125,297.98951426875 1006.96873474125,298.97415160875 C1016.6901645412499,302.20720218875 1026.38041832125,305.52610320875 1036.06250000125,308.87499999875 C1053.60696873125,314.92651545875003 1071.24797895125,320.67017916875 1088.90655517125,326.37876891875 C1094.99138269125,328.34657051875 1101.07132594125,330.32882034875 1107.14843750125,332.32031249875 C1195.76501954125,361.33965457875 1285.51601953125,388.33610130875 1463.79858398125,414.71728515875 C1466.4000622112499,414.88784854874996 1468.9952587612502,415.08153535875 1471.59399414125,415.29443358875 C1483.6160339512498,416.24316639874996 1495.63519010125,416.15413778875 1507.68750000125,416.12499999875 C1508.81939758125,416.12344909875003 1509.95129516125,416.12189818875004 1511.1174926712501,416.12030028875 C1535.1676129012499,416.08159689875004 1559.08284328125,415.76218941875004 1583.00000000125,412.99999999875 C1584.46977295125,412.83346923875 1584.46977295125,412.83346923875 1585.96923828125,412.66357421875 C1597.01302068125,411.39779622875 1607.96751974125,409.98149604875 1618.87109375125,407.80078124875 C1621.9172244512501,407.19394950875 1624.96927610125,406.66546417874997 1628.03515625125,406.16796874875 C1649.29052405125,402.70017697875 1670.44638720125,398.06101776875 1691.00830078125,391.61376952875 C1693.11199969125,390.96548574875 1695.22377859125,390.35274564875 1697.33984375125,389.74609374875 C1743.69699634125,376.36575600875 1788.67250381125,357.79880034875 1831.92138672125,336.50683593875 C1835.91023218125,334.55448429875 1839.91980636125,332.64747065874997 1843.93164062125,330.74291991875 C1863.41152249125,321.49327770875004 1882.61257978125,311.74623149875003 1901.63574219125,301.59326171875 C1903.41819796125,300.64208143875 1905.20146726125,299.69242389875 1906.98559570125,298.74438476875 C1908.67096350125,297.84876866875 1910.35447911125,296.94965616875 1912.03588867125,296.04663085875 C1912.78845947125,295.64710204875 1913.54103027125,295.24757323874996 1914.31640625125,294.83593749875 C1914.98099853125,294.48063964875 1915.64559082125,294.12534179875 1916.33032226125,293.75927734875 C1918.00000000125,292.99999999875 1918.00000000125,292.99999999875 1920.00000000125,292.99999999875 C1920.00000000125,317.08999999875 1920.00000000125,341.17999999874996 1920.00000000125,365.99999999875 C1901.68750000125,375.37499999875 1901.68750000125,375.37499999875 1896.04174805125,378.26318358875 C1887.64420466125,382.56376050874997 1879.26551783125,386.89642611875 1870.92187500125,391.30078124875 C1850.92447404125,401.85661084875 1830.60031456125,411.67693007875 1810.00000000125,420.99999999875 C1809.06800781125,421.42215789875 1809.06800781125,421.42215789875 1808.11718750125,421.85284423875 C1771.72446802125,438.31170434875 1733.90014173125,454.47002391875 1695.14746094125,464.42871093875 C1692.80697834125,465.05134955875 1690.48632366125,465.72662925875 1688.16406250125,466.41406249875 C1667.54150449125,472.51677699875 1646.70396297125,477.08016062875 1625.49072266125,480.57519530875 C1622.00003152125,481.17054941875 1618.5349803612498,481.86871916875 1615.06250000125,482.56249999875 C1604.44898096125,484.57164351875 1593.72877617125,485.78438960875 1583.00000000125,486.99999999875 C1582.1168310512498,487.10199706875 1581.23366211125,487.20399413875 1580.32373047125,487.30908202875 C1535.06879057125,492.43768595875 1488.4264476112498,491.36459431875 1443.15026855125,487.19598388875 C1441.1714529912501,487.01562689875 1439.1917153212498,486.84546367875 1437.21191406125,486.67626952875 C1400.49058436125,483.51493367875 1364.00013393125,476.74956378875 1328.00000000125,468.99999999875 C1326.75557129125,468.73284179875 1325.5111425812502,468.46568358875 1324.22900390125,468.19042968875 C1282.87303715125,459.17761723875 1242.00004099125,447.72620022875 1201.45703125125,435.62548827875 C1196.2675709412501,434.07712024875 1191.07204635125,432.55001888875 1185.87500000125,431.02734374875 C1168.6325520012501,425.96639663875 1151.49388928125,420.65717176875 1134.41091919125,415.07873534875 C1128.80131688125,413.25132609875004 1123.17951099125,411.46353638874996 1117.55468750125,409.68359374875 C1116.64293259125,409.39505523875 1115.73117767125,409.10651671874996 1114.79179382125,408.80923461875 C1113.86848770125,408.51705047875 1112.94518158125,408.22486632875 1111.99389648125,407.92382812874996 C1080.22013968125,397.86804818875 1048.64830988125,387.26092853875 1017.11083984125,376.48901366875 C1002.94053860125,371.65317974875 988.74291554125,366.90239320875 974.5363283112499,362.17456531875 C973.74590735125,361.91151442875 972.95548639125,361.64846353875 972.14111328125,361.37744140875 C971.3345513412501,361.10902529875 970.52798941125,360.84060918875 969.69698620125,360.56405925875004 C961.3835546412499,357.79648505875 953.07400662125,355.01732582875 944.76449585125,352.23800658875 C937.61373325125,349.84628904875 930.4620344812499,347.45737609875 923.3102016412499,345.06886100875 C918.09908826125,343.32834546875 912.88836359125,341.58668340875 907.67846680125,339.84252929875004 C883.34181898125,331.69618662875 858.97786854125,323.68355297874996 834.4653778112499,316.08157348875 C829.34150507125,314.48236981875 824.23262379125,312.83772265875 819.12500000125,311.18749999875 C814.75186612125,309.78578370875 810.37663364125,308.39074604875 806.00000000125,306.99999999875 C805.25248474125,306.76236938875 804.50496948125,306.52473876875 803.73480224125,306.27990722875 C767.88113002125,294.89331967875 731.78373473125,284.53835111875003 695.48397827125,274.67584228875 C693.23061816125,274.06274672874997 690.97804015125,273.44689409875 688.72583008125,272.82958984875 C665.63555619125,266.50793650875 642.40658058125,261.01848968875 619.00000000125,255.99999999875 C618.18509094125,255.82426452875 617.37018188125,255.64852904875 616.53057861125,255.46746825875 C582.2475891512499,248.08179339875 547.66181645125,242.61250833875 512.81250000125,238.68749999875 C511.51151367125,238.54022460875 510.21052734125,238.39294921875 508.87011719124996,238.24121093875 C504.58299854125,237.78436050875 500.29489645125,237.37569690875 496.00000000125,236.99999999875 C495.01472320125004,236.91353210875 494.02944641125,236.82706420875002 493.01431274125,236.73797607875 C474.84472975125,235.18893944875 456.79302666125,234.66948875875 438.56250000125,234.74999999875 C436.60251572125003,234.75564971875 436.60251572125003,234.75564971875 434.60293579125,234.76141357875 C393.62433269125,234.88922361875 352.45566157125,236.77313776875 312.23583984125,245.31713866875 C308.66796175125,246.07007023875 305.08841867125,246.72766019875002 301.50000000125,247.37499999875 C234.40097041125,259.86283391874997 170.89237691124998,283.81695848875 109.00000000124999,311.99999999875 C108.00848938125,312.45031585875 108.00848938125,312.45031585875 106.99694824125004,312.90972900875 C85.64409520125002,322.61452851875003 64.66488546125004,333.07798038875 43.68750000124999,343.56249999875 C42.69101944124998,344.06029842875 42.69101944124998,344.06029842875 41.67440796125004,344.56815337875 C37.78959339125004,346.50908965875 33.90621845124997,348.45286145875 30.024805071249943,350.40059089875 C28.267882131249962,351.28196088875 26.510199851250036,352.16181671875 24.75248718124999,353.04161071875 C17.947816421249968,356.46351408875 11.237170611250008,360.01426931875 4.575027461249988,363.70372008875 C2.000000001249987,364.99999999875 2.000000001249987,364.99999999875 1.2499867807491682e-9,364.99999999875 C1.2499867807491682e-9,340.90999999875 1.2499867807491682e-9,316.81999999875 1.2499867807491682e-9,291.99999999875 C83.08288949124994,249.28007454875 83.08288949124994,249.28007454875 116.14501953125,234.70312499875 C119.40067754125005,233.26768939875 122.64795701125001,231.81426382875 125.89353943125002,230.35621642875 C152.35066198125003,218.48306186874999 179.25947411124997,207.85645568875 206.68750000125,198.43749999875 C207.39113678125,198.19537780875 208.09477356125,197.95325561875 208.81973266125,197.70379638875 C244.24188940124998,185.56409495875 281.52062362125,175.17480580875 318.70239258125,170.32373046875 C321.29799609125,169.95801266875 323.87714029125,169.52350619875 326.46093750125,169.08203124875 C422.14568300125,152.95996187875 519.82463806125,160.90971860875 637.14111328125,186.08935546875 z" fill="#67e7e7" id="svg_3" class="" fill-opacity="1"/><path d="M413.34375,83.796875 C414.87101774,83.78985196 416.39828519,83.78276515 417.92555237,83.77561951 C422.78370586,83.75620898 427.64181165,83.75118466 432.5,83.75 C433.3284782,83.74955814 434.15695641,83.74911629 435.01054001,83.74866104 C459.67666583,83.74176324 484.17667334,84.00429581 508.71740723,86.74676514 C511.12158992,87.0134894 513.5268917,87.26760882 515.93261719,87.52001953 C541.79975487,90.26008585 567.44124636,94.18095869 593,99 C593.82062927,99.15450623 594.64125854,99.30901245 595.48675537,99.46820068 C647.58195376,109.33904644 699.135799,123.12006801999999 750,138 C751.0153381299999,138.29696777 752.03067627,138.59393555 753.0767822299999,138.89990233999998 C780.33984033,146.89148354 807.4592451,155.3429313 834.52734375,163.96875 C835.61814885,164.31618129999998 835.61814885,164.31618129999998 836.73099041,164.67063141 C871.29615217,175.68254604 905.72061861,187.10749605 940.12282008,198.61673212 C947.31809344,201.02360232 954.51532481,203.42458547 961.71272373,205.82509041 C990.20980222,215.32959146 1018.70012763,224.85047151 1047.11650085,234.59420776 C1060.56578184,239.20505825 1074.04785972,243.70882244 1087.5625,248.125 C1088.74848785,248.5129776 1089.93447571,248.9009552 1091.15640259,249.3006897 C1154.25060485,269.91786041 1217.69148593,289.49862330999997 1282,306 C1282.84961304,306.21873779 1283.69922607,306.43747558999996 1284.57458496,306.6628418 C1355.7722664100002,324.96935601 1427.48667741,336.68749834 1501,339 C1502.10327637,339.03609374999996 1503.20655273,339.07218750000004 1504.34326172,339.109375 C1510.57278061,339.28457679999997 1516.77207334,339.20658308 1523,339 C1523.69039368,338.97808594 1524.38078735,338.95617187 1525.09210205,338.93359375 C1609.01173183,336.22902006000004 1689.7756037,318.81338152 1807.10986328,269.87506104 C1809.06460582,268.97008998 1811.02055706,268.06776511 1812.9765625,267.16552734000004 C1840.91587278,254.25920009 1868.57898097,240.71878763 1895.72509766,226.21240234 C1900.34872422,223.74825451 1904.9871267,221.31219209 1909.625,218.875 C1910.54595459,218.38845947 1911.46690918,217.90191895 1912.41577148,217.40063477 C1913.68336304,216.73439087 1913.68336304,216.73439087 1914.9765625,216.0546875 C1915.73018066,215.65749512 1916.48379883,215.26030273 1917.26025391,214.85107422 C1919,214 1919,214 1920,214 C1920,217.3 1920,220.6 1920,224 C1918.91807373,224.55349121 1917.83614746,225.10698242 1916.72143555,225.67724609 C1912.60742604,227.78226226 1908.49416679,229.8887411 1904.38110352,231.99560547 C1902.61958091,232.89768131 1900.85786984,233.79938924 1899.09594727,234.70068359 C1889.67842946,239.51844777 1880.27688806,244.36255455 1870.921875,249.30078125 C1850.92447404,259.85661085000004 1830.60031456,269.67693008000003 1810,279 C1809.37867188,279.2814386 1808.75734375,279.5628772 1808.1171875,279.85284423999997 C1771.72446802,296.31170435 1733.90014173,312.47002392 1695.14746094,322.42871094 C1692.80697834,323.05134956 1690.48632366,323.72662926 1688.1640625,324.4140625 C1667.54150449,330.516777 1646.70396297,335.08016063 1625.49072266,338.57519531 C1622.00003152,339.17054942 1618.53498036,339.86871917 1615.0625,340.5625 C1604.44898096,342.57164352 1593.72877617,343.78438961 1583,345 C1582.11683105,345.10199707 1581.23366211,345.20399414 1580.32373047,345.30908203 C1535.06879057,350.43768596 1488.42644762,349.36459432 1443.15026855,345.19598389 C1441.17145299,345.0156269 1439.19171532,344.84546368 1437.21191406,344.67626953 C1400.49058436,341.51493368 1364.00013393,334.74956379 1328,327 C1326.75557129,326.73284179999996 1325.51114258,326.46568359 1324.2290039099998,326.19042969 C1282.87303715,317.17761724 1242.00004099,305.72620023 1201.45703125,293.62548828 C1196.26757094,292.07712025 1191.0720463500002,290.55001889 1185.875,289.02734375 C1168.63255201,283.96639663999997 1151.49388928,278.65717177 1134.41091919,273.07873535 C1128.80131689,271.2513261 1123.17951099,269.46353639 1117.5546875,267.68359375 C1116.6429325899999,267.39505524000003 1115.7311776699999,267.10651672 1114.7917938199998,266.80923462 C1113.8684877,266.51705047999997 1112.94518158,266.22486633 1111.9938964799999,265.92382812 C1080.22013968,255.86804819 1048.64830988,245.26092854 1017.11083984,234.48901367 C1002.9405386,229.65317975 988.74291554,224.90239321 974.53632832,220.17456532 C973.74590735,219.91151443 972.95548639,219.64846354 972.14111328,219.37744141 C971.33455134,219.1090253 970.52798941,218.84060919 969.6969862,218.56405926 C961.38355464,215.79648506 953.07400662,213.01732583 944.76449585,210.23800659 C937.61373325,207.84628905 930.46203448,205.4573761 923.3102016400001,203.06886101 C918.0990882599999,201.32834547 912.8883635899999,199.58668341 907.6784668,197.8425293 C883.34181898,189.69618663 858.9778685399999,181.68355298 834.4653778100001,174.08157348999998 C829.34150507,172.48236982 824.2326238,170.83772266 819.125,169.1875 C814.7518661199999,167.78578371 810.37663364,166.39074605000002 806,165 C805.25248474,164.76236938 804.50496948,164.52473877 803.73480225,164.27990723 C767.88113002,152.89331968 731.78373473,142.53835111 695.4839782700001,132.67584229 C693.2306181700001,132.06274673000001 690.97804015,131.4468941 688.7258300799999,130.82958983999998 C665.63555619,124.50793651000001 642.40658058,119.01848969 619,114 C618.18509094,113.82426453 617.37018188,113.64852905000001 616.53057861,113.46746826 C582.2475891500001,106.08179339 547.6618164500001,100.61250834 512.8125,96.6875 C511.51151367,96.54022461 510.21052734,96.39294922 508.87011719,96.24121094 C504.58299855,95.78436051 500.29489645,95.37569691 496,95 C495.01472321,94.9135321 494.02944641,94.82706421 493.01431274,94.73797607 C474.84458323,93.18892696 456.79312070000003,92.67076572 438.5625,92.75 C437.25817016999997,92.75343414 435.95384033,92.75686829 434.60998535,92.76040649 C376.07247898,92.92586099 318.76915919,99.51632634 262,114 C260.16526123,114.46744629 260.16526123,114.46744629 258.29345703,114.94433594 C201.42029156,129.64285676 146.96415896000002,151.81180796 94,177 C92.93974609000003,177.50192871000002 91.87949219000001,178.00385742 90.78710938,178.52099608999998 C73.41093925000001,186.76225025 56.205325370000025,195.34681462 39,203.9375 C37.90846619000001,204.48192749 36.81693237000002,205.02635498 35.692321779999986,205.58728027 C19.814446859999975,213.49304923 19.814446859999975,213.49304923 4.1953125,221.89282227 C2,223 2,223 0,223 C0,220.03 0,217.06 0,214 C15.715368119999994,205.2490042 31.659547809999992,197.01111157 47.75634766000002,188.99145507999998 C50.965104740000015,187.39274179 54.17020266999998,185.78684398000001 57.37439251000001,184.17900085 C81.91031805,171.87359583 106.72005845000001,160.22595167 131.9375,149.375 C132.87091217,148.97234924 133.80432434,148.56969849 134.76602172999998,148.15484619 C149.65505553999998,141.74216207 164.61237393,135.67320824 179.85449219,130.14697266000002 C182.88388537,129.04233984 185.89967929,127.90658049000001 188.9140625,126.76171875 C259.70643727000004,100.16897215 337.60604403,84.01363691 413.34375,83.796875 z" fill="#2A2720" id="svg_4"/><path d="M430.875,225.8125 C432.68221527,225.81086853 432.68221527,225.81086853 434.52593994,225.8092041 C456.46725706,225.8114461 478.38955632,226.2607927 500.25,228.25 C500.93925568,228.31147217 501.62851135,228.37294434 502.33865356,228.4362793 C538.80120019,231.71853138 575.11994621,237.55095186 610.9375,245.0625 C612.31039688,245.3497142 612.31039688,245.3497142 613.71102905,245.64273071 C641.19108982,251.4091501 668.62928104,257.65084311 695.64257812,265.33642578 C698.04354251,266.01225648 700.4498366600001,266.66403745 702.859375,267.30859375 C719.6904182000001,271.81505362 736.41138358,276.70528064 753.13769531,281.58300781 C756.28738264,282.50146434 759.43772061,283.41761741 762.58886719,284.33105469 C779.5350684,289.2439487 796.39687154,294.33361219 813.17578125,299.796875 C820.09433155,302.04458623 827.0453307,304.17977917999997 834,306.3125 C846.16032731,310.05791683 858.2308467299999,314.03762224 870.2922363299999,318.08764648 C878.8164636,320.94793056000003 887.3497420799999,323.77635935 895.90234375,326.55078125 C896.8479264800001,326.85756805 897.79350922,327.16435486 898.7677459700001,327.48043823 C899.73134537,327.79304596 900.69494476,328.10565369 901.68774414,328.42773438 C922.94654355,335.3249087 944.14687107,342.38541435 965.3125,349.5625 C966.32778212,349.90668535 966.32778212,349.90668535 967.36357498,350.25782394 C980.83847094,354.8260034 994.31007474,359.40385962 1007.77978516,363.98730469 C1016.56011727,366.97484876 1025.3416601200001,369.95880964 1034.125,372.9375 C1034.8391935,373.17971535000004 1035.55338699,373.42193069 1036.28922272,373.6714859 C1060.59606845,381.91225658999997 1084.97992586,389.87761101 1109.46582031,397.57226562 C1115.3394107,399.41904536000004 1121.2012029100001,401.30213423 1127.0625,403.1875 C1136.63940247,406.25606604999996 1146.22448835,409.29888527 1155.8122253400002,412.33340454 C1157.43715815,412.84786379 1159.06194281,413.36279128 1160.6865539599999,413.87826538 C1181.1968402500002,420.38401475 1201.83069159,426.45833441 1222.5,432.4375 C1223.64208923,432.76804382 1224.78417847,433.09858765 1225.96087646,433.43914795 C1240.89278505,437.75292656 1255.82076552,441.92028035 1270.9453125,445.5078125 C1275.01201186,446.47878923999997 1279.03194009,447.56290364 1283.05180359,448.70831298999997 C1294.7112719699999,452.02568327 1306.48184003,454.74262021000004 1318.3125,457.375 C1319.38136444,457.61366791 1320.45022888,457.85233582 1321.55148315,458.09823608 C1363.0677094500002,467.3478255 1405.0166303800002,475.21467889999997 1447.45263672,478.70751953 C1449.77025033,478.89860701 1452.08706855,479.09967525 1454.40283203,479.31201172 C1511.30267935,484.46400762 1569.57052397,481.98143066 1625.70489502,471.43035889 C1628.05595201,470.98950835 1630.40846518,470.55712081 1632.76123047,470.12548828 C1657.3137618,465.58819546999996 1681.17859629,459.45795265000004 1705,452 C1705.74876404,451.76710266 1706.49752808,451.53420532 1707.26898193,451.29425048999997 C1741.73674748,440.56173337 1775.23937755,427.14419259 1808,412 C1809.27585719,411.41255049 1810.55173692,410.82514993999996 1811.82763672,410.23779297 C1841.28012496,396.65626304 1870.41242492,382.32267976 1899,367 C1902.51779767,365.11924368999996 1906.03936268,363.24573025999996 1909.5625,361.375 C1910.38000732,360.93599365 1911.19751465,360.4969873 1912.03979492,360.04467773 C1912.79107666,359.64579346 1913.5423584,359.24690918 1914.31640625,358.8359375 C1914.98099854,358.48063965 1915.64559082,358.1253418 1916.33032227,357.75927734000004 C1918,357 1918,357 1920,357 C1920,359.97 1920,362.94 1920,366 C1918.91807373,366.55349121 1917.83614746,367.10698242 1916.72143555,367.67724609000004 C1912.60742604,369.78226226000004 1908.49416679,371.8887411 1904.38110352,373.99560547 C1902.61958091,374.89768131 1900.85786984,375.79938924 1899.09594727,376.70068359000004 C1889.67842946,381.51844776999997 1880.27688806,386.36255455 1870.921875,391.30078125 C1850.92447404,401.85661085000004 1830.60031456,411.67693008000003 1810,421 C1809.37867188,421.2814386 1808.75734375,421.5628772 1808.1171875,421.85284423999997 C1771.72446802,438.31170435 1733.90014173,454.47002392 1695.14746094,464.42871094 C1692.80697834,465.05134956 1690.48632366,465.72662926 1688.1640625,466.4140625 C1667.54150449,472.516777 1646.70396297,477.08016063 1625.49072266,480.57519531 C1622.00003152,481.17054942 1618.53498036,481.86871917 1615.0625,482.5625 C1604.44898096,484.57164352 1593.72877617,485.78438961 1583,487 C1582.11683105,487.10199707 1581.23366211,487.20399414 1580.32373047,487.30908203 C1535.06879057,492.43768596 1488.42644762,491.36459432 1443.15026855,487.19598389 C1441.17145299,487.0156269 1439.19171532,486.84546368 1437.21191406,486.67626953 C1400.49058436,483.51493368 1364.00013393,476.74956379 1328,469 C1326.75557129,468.73284179999996 1325.51114258,468.46568359 1324.2290039099998,468.19042969 C1282.87303715,459.17761724 1242.00004099,447.72620023 1201.45703125,435.62548828 C1196.26757094,434.07712025 1191.0720463500002,432.55001889 1185.875,431.02734375 C1168.63255201,425.96639663999997 1151.49388928,420.65717177 1134.41091919,415.07873535 C1128.80131689,413.2513261 1123.17951099,411.46353639 1117.5546875,409.68359375 C1116.6429325899999,409.39505524000003 1115.7311776699999,409.10651672 1114.7917938199998,408.80923462 C1113.8684877,408.51705047999997 1112.94518158,408.22486633 1111.9938964799999,407.92382812 C1080.22013968,397.86804818999997 1048.64830988,387.26092854 1017.11083984,376.48901366999996 C1002.9405386,371.65317975 988.74291554,366.90239321 974.53632832,362.17456532 C973.74590735,361.91151443 972.95548639,361.64846353999997 972.14111328,361.37744140999996 C971.33455134,361.1090253 970.52798941,360.84060919 969.6969862,360.56405926 C961.38355464,357.79648506 953.07400662,355.01732583 944.76449585,352.23800659 C937.61373325,349.84628905 930.46203448,347.45737610000003 923.3102016400001,345.06886101 C918.0990882599999,343.32834547 912.8883635899999,341.58668341 907.6784668,339.8425293 C883.34181898,331.69618663 858.9778685399999,323.68355298 834.4653778100001,316.08157349 C829.34150507,314.48236982000003 824.2326238,312.83772266 819.125,311.1875 C814.7518661199999,309.78578371000003 810.37663364,308.39074605 806,307 C805.25248474,306.76236938 804.50496948,306.52473877 803.73480225,306.27990723 C767.88113002,294.89331968 731.78373473,284.53835111 695.4839782700001,274.67584229 C693.2306181700001,274.06274673 690.97804015,273.4468941 688.7258300799999,272.82958984 C665.63555619,266.50793651 642.40658058,261.01848969 619,256 C618.18509094,255.82426453 617.37018188,255.64852905 616.53057861,255.46746826 C582.2475891500001,248.08179339 547.6618164500001,242.61250834 512.8125,238.6875 C511.51151367,238.54022461 510.21052734,238.39294922 508.87011719,238.24121094 C504.58299855,237.78436051 500.29489645,237.37569691 496,237 C495.01472321,236.9135321 494.02944641,236.82706421 493.01431274,236.73797607 C474.84472975,235.18893945 456.79302666,234.66948876 438.5625,234.75 C436.60251572,234.75564972 436.60251572,234.75564972 434.60293579,234.76141357 C393.62433269,234.88922362 352.45566157,236.77313777 312.23583984,245.31713867 C308.66796175,246.07007024 305.08841867,246.7276602 301.5,247.375 C234.40097042,259.86283392 170.89237691,283.81695849 109,312 C108.33899292000001,312.30021057 107.67798584000002,312.60042114 106.99694824,312.90972899999997 C85.64409519999998,322.61452851 64.66488546,333.07798039 43.6875,343.5625 C43.023179630000016,343.89436562000003 42.35885925000002,344.22623123 41.674407959999996,344.56815338 C37.7895934,346.50908966 33.90621844999998,348.45286146 30.024805070000014,350.4005909 C28.267882129999975,351.28196089 26.510199849999992,352.16181672 24.752487180000003,353.04161072 C17.94781642999999,356.46351409 11.237170610000021,360.01426932000004 4.575027470000009,363.70372009 C2,365 2,365 0,365 C0,362.03 0,359.06 0,356 C76.40898117,316.67465357000003 76.40898117,316.67465357000003 109,302 C110.31858514999999,301.40329679 111.63710499000001,300.80644923 112.95556641000002,300.20947266 C169.56871410000002,274.61619392 228.30146659,253.00312375 289.28979491999996,240.56176758 C292.46022005,239.90460622 295.62189046000003,239.21030895 298.78515625,238.51953125 C322.61361907,233.41182182 346.7653527,230.36154053 371,228 C372.20446777,227.87995605 373.40893555,227.75991211 374.64990234,227.63623047 C393.37003149,225.86129665 412.08631875,225.82159115 430.875,225.8125 z" fill="#2D2A23" id="svg_5"/><path d="M430.875,152.8125 C432.68221527,152.81086853 432.68221527,152.81086853 434.52593994,152.8092041 C456.46725706,152.8114461 478.38955632,153.2607927 500.25,155.25 C500.93925568,155.31147217 501.62851135,155.37294434 502.33865356,155.4362793 C538.80120019,158.71853138 575.11994621,164.55095186 610.9375,172.0625 C612.31039688,172.3497142 612.31039688,172.3497142 613.71102905,172.64273071 C641.19108982,178.4091501 668.62928104,184.65084311 695.64257812,192.33642578 C698.04354251,193.01225648 700.4498366600001,193.66403745 702.859375,194.30859375 C719.6904182000001,198.81505362000001 736.41138358,203.70528064 753.13769531,208.58300781 C756.28738264,209.50146433999998 759.43772061,210.41761741 762.58886719,211.33105469 C779.5350684,216.2439487 796.39687154,221.33361219 813.17578125,226.796875 C820.09433155,229.04458623 827.0453307,231.17977918 834,233.3125 C846.16032731,237.05791683 858.2308467299999,241.03762224000002 870.2922363299999,245.08764648 C878.8164636,247.94793056 887.3497420799999,250.77635935 895.90234375,253.55078125 C896.8479264800001,253.85756805 897.79350922,254.16435486 898.7677459700001,254.48043823 C899.73134537,254.79304596 900.69494476,255.10565369 901.68774414,255.42773438 C922.94654355,262.3249087 944.14687107,269.38541435 965.3125,276.5625 C966.32778212,276.90668535 966.32778212,276.90668535 967.36357498,277.25782394 C980.83847094,281.8260034 994.31007474,286.40385962 1007.77978516,290.98730469 C1016.56011727,293.97484876 1025.3416601200001,296.95880964 1034.125,299.9375 C1034.8391935,300.17971535000004 1035.55338699,300.42193069 1036.28922272,300.6714859 C1060.59606845,308.91225658999997 1084.97992586,316.87761101 1109.46582031,324.57226562 C1115.3394107,326.41904536000004 1121.2012029100001,328.30213423 1127.0625,330.1875 C1136.63940247,333.25606604999996 1146.22448835,336.29888527 1155.8122253400002,339.33340454 C1157.43715815,339.84786379 1159.06194281,340.36279128 1160.6865539599999,340.87826538 C1181.1968402500002,347.38401475 1201.83069159,353.45833441 1222.5,359.4375 C1223.64208923,359.76804382 1224.78417847,360.09858765 1225.96087646,360.43914795 C1240.89278505,364.75292656 1255.82076552,368.92028035 1270.9453125,372.5078125 C1275.01201186,373.47878923999997 1279.03194009,374.56290364 1283.05180359,375.70831298999997 C1294.7112719699999,379.02568327 1306.48184003,381.74262021000004 1318.3125,384.375 C1319.38136444,384.61366791 1320.45022888,384.85233582 1321.55148315,385.09823608 C1363.0677094500002,394.3478255 1405.0166303800002,402.21467889999997 1447.45263672,405.70751953 C1449.77025033,405.89860701 1452.08706855,406.09967525 1454.40283203,406.31201172 C1511.30267935,411.46400762 1569.57052397,408.98143066 1625.70489502,398.43035889 C1628.05595201,397.98950835 1630.40846518,397.55712081 1632.76123047,397.12548828 C1657.3137618,392.58819546999996 1681.17859629,386.45795265000004 1705,379 C1705.74876404,378.76710266 1706.49752808,378.53420532 1707.26898193,378.29425048999997 C1741.73674748,367.56173337 1775.23937755,354.14419259 1808,339 C1809.27585719,338.41255049 1810.55173692,337.82514993999996 1811.82763672,337.23779297 C1841.28012496,323.65626304 1870.41242492,309.32267976 1899,294 C1902.51779767,292.11924368999996 1906.03936268,290.24573025999996 1909.5625,288.375 C1910.38000732,287.93599365 1911.19751465,287.4969873 1912.03979492,287.04467773 C1912.79107666,286.64579346 1913.5423584,286.24690918 1914.31640625,285.8359375 C1914.98099854,285.48063965 1915.64559082,285.1253418 1916.33032227,284.75927734000004 C1918,284 1918,284 1920,284 C1920,286.97 1920,289.94 1920,293 C1918.91807373,293.55349121 1917.83614746,294.10698242 1916.72143555,294.67724609000004 C1912.60742604,296.78226226000004 1908.49416679,298.8887411 1904.38110352,300.99560547 C1902.61958091,301.89768131 1900.85786984,302.79938924 1899.09594727,303.70068359000004 C1889.67842946,308.51844776999997 1880.27688806,313.36255455 1870.921875,318.30078125 C1850.92447404,328.85661085000004 1830.60031456,338.67693008000003 1810,348 C1809.37867188,348.2814386 1808.75734375,348.5628772 1808.1171875,348.85284423999997 C1771.72446802,365.31170435 1733.90014173,381.47002392 1695.14746094,391.42871094 C1692.80697834,392.05134956 1690.48632366,392.72662926 1688.1640625,393.4140625 C1667.54150449,399.516777 1646.70396297,404.08016063 1625.49072266,407.57519531 C1622.00003152,408.17054942 1618.53498036,408.86871917 1615.0625,409.5625 C1604.44898096,411.57164352 1593.72877617,412.78438961 1583,414 C1582.11683105,414.10199707 1581.23366211,414.20399414 1580.32373047,414.30908203 C1535.06879057,419.43768596 1488.42644762,418.36459432 1443.15026855,414.19598389 C1441.17145299,414.0156269 1439.19171532,413.84546368 1437.21191406,413.67626953 C1400.49058436,410.51493368 1364.00013393,403.74956379 1328,396 C1326.75557129,395.73284179999996 1325.51114258,395.46568359 1324.2290039099998,395.19042969 C1282.87303715,386.17761724 1242.00004099,374.72620023 1201.45703125,362.62548828 C1196.26757094,361.07712025 1191.0720463500002,359.55001889 1185.875,358.02734375 C1168.63255201,352.96639663999997 1151.49388928,347.65717177 1134.41091919,342.07873535 C1128.80131689,340.2513261 1123.17951099,338.46353639 1117.5546875,336.68359375 C1116.6429325899999,336.39505524000003 1115.7311776699999,336.10651672 1114.7917938199998,335.80923462 C1113.8684877,335.51705047999997 1112.94518158,335.22486633 1111.9938964799999,334.92382812 C1080.22013968,324.86804818999997 1048.64830988,314.26092854 1017.11083984,303.48901366999996 C1002.9405386,298.65317975 988.74291554,293.90239321 974.53632832,289.17456532 C973.74590735,288.91151443 972.95548639,288.64846353999997 972.14111328,288.37744140999996 C971.33455134,288.1090253 970.52798941,287.84060919 969.6969862,287.56405926 C961.38355464,284.79648506 953.07400662,282.01732583 944.76449585,279.23800659 C937.61373325,276.84628905 930.46203448,274.45737610000003 923.3102016400001,272.06886101 C918.0990882599999,270.32834547 912.8883635899999,268.58668341 907.6784668,266.8425293 C883.34181898,258.69618663 858.9778685399999,250.68355298 834.4653778100001,243.08157348999998 C829.34150507,241.48236982 824.2326238,239.83772266 819.125,238.1875 C814.7518661199999,236.78578371 810.37663364,235.39074605000002 806,234 C805.25248474,233.76236938 804.50496948,233.52473877 803.73480225,233.27990723 C767.88113002,221.89331968 731.78373473,211.53835111 695.4839782700001,201.67584229 C693.2306181700001,201.06274673000001 690.97804015,200.4468941 688.7258300799999,199.82958983999998 C665.63555619,193.50793651 642.40658058,188.01848969 619,183 C618.18509094,182.82426453 617.37018188,182.64852905 616.53057861,182.46746826 C582.2475891500001,175.08179339 547.6618164500001,169.61250834 512.8125,165.6875 C511.51151367,165.54022461 510.21052734,165.39294922 508.87011719,165.24121094 C504.58299855,164.78436051 500.29489645,164.37569691 496,164 C495.01472321,163.9135321 494.02944641,163.82706421 493.01431274,163.73797607 C474.84472975,162.18893945 456.79302666,161.66948876 438.5625,161.75 C436.60251572,161.75564972 436.60251572,161.75564972 434.60293579,161.76141357 C393.62433269,161.88922362 352.45566157,163.77313777 312.23583984,172.31713867 C308.66796175,173.07007024 305.08841867,173.7276602 301.5,174.375 C234.40097042,186.86283392 170.89237691,210.81695849 109,239 C108.33899292000001,239.30021057 107.67798584000002,239.60042113999998 106.99694824,239.909729 C85.64409519999998,249.61452851 64.66488546,260.07798039 43.6875,270.5625 C43.023179630000016,270.89436562000003 42.35885925000002,271.22623123 41.674407959999996,271.56815338 C37.7895934,273.50908966 33.90621844999998,275.45286146 30.024805070000014,277.4005909 C28.267882129999975,278.28196089 26.510199849999992,279.16181672 24.752487180000003,280.04161072 C17.94781642999999,283.46351409 11.237170610000021,287.01426932000004 4.575027470000009,290.70372009 C2,292 2,292 0,292 C0,289.03 0,286.06 0,283 C76.40898117,243.67465357 76.40898117,243.67465357 109,229 C110.31858514999999,228.40329679 111.63710499000001,227.80644923 112.95556641000002,227.20947266000002 C169.56871410000002,201.61619392 228.30146659,180.00312375 289.28979491999996,167.56176758 C292.46022005,166.90460622 295.62189046000003,166.21030895 298.78515625,165.51953125 C322.61361907,160.41182182 346.7653527,157.36154053 371,155 C372.20446777,154.87995605 373.40893555,154.75991211 374.64990234,154.63623047 C393.37003149,152.86129665 412.08631875,152.82159115 430.875,152.8125 z" fill="#2D2A23" id="svg_6"/></g></svg>